<?xml version="1.0" encoding="UTF-8"?>
<svg id="Camada_2" data-name="Camada 2" xmlns="http://www.w3.org/2000/svg" viewBox="0 0 719.77 987.88">
  <defs>
    <style>
      .cls-1 {
        fill: #f7c599;
      }

      .cls-2 {
        fill: #b3a99f;
      }

      .cls-3 {
        fill: #b33220;
      }

      .cls-4 {
        fill: #472716;
      }

      .cls-5 {
        fill: #bd412d;
      }

      .cls-6 {
        fill: #29363d;
      }

      .cls-7 {
        fill: #34302c;
      }

      .cls-8 {
        fill: #a4ab9d;
      }

      .cls-9 {
        fill: #f7d6a3;
      }

      .cls-10 {
        fill: #de4e33;
      }

      .cls-11 {
        fill: #fff;
      }

      .cls-12 {
        fill: #892d22;
      }

      .cls-13 {
        fill: #526268;
      }

      .cls-14 {
        fill: #f2a84d;
      }

      .cls-15 {
        fill: #f8f3ec;
      }

      .cls-16 {
        fill: #f4be5c;
      }

      .cls-17 {
        fill: #db882f;
      }

      .cls-18 {
        fill: #a03727;
      }

      .cls-19 {
        fill: #f2e9de;
      }

      .cls-20 {
        fill: #5b5851;
      }

      .cls-21 {
        fill: #2f444e;
      }

      .cls-22 {
        fill: #494a45;
      }

      .cls-23 {
        fill: #582e19;
      }

      .cls-24 {
        fill: #3d515b;
      }

      .cls-25 {
        fill: #f8b988;
      }

      .cls-26 {
        fill: #528396;
      }

      .cls-27 {
        fill: #eba271;
      }

      .cls-28 {
        fill: #dd8d61;
      }

      .cls-29 {
        fill: #2b3c44;
      }

      .cls-30 {
        fill: #241914;
      }
    </style>
  </defs>
  <g id="Camada_1-2" data-name="Camada 1">
    <path class="cls-30" d="M415.33,0c5.96,1.87,13.22,1.29,19.37,2.12,66.44,9.04,142.41,65.03,174.77,123.18,2.19,3.94,9.73,22.15,11.08,23.41,1.06,1,16.22,5.45,20.07,7.43,49.93,25.78,46.93,99.87,10.91,136.28,29.57,45.06-7.11,115.45-60.27,119.94-6.94,21.4-26.49,35.61-48.95,35.53-1.06,1.06,2.39,18.13,4,19.51,89.49,19.57,139.81,110.01,151.94,194.79.96,1.75,8.58-.9,10.61,8.6,1.21,5.67,4.35,34.91,2.68,38.8-.75,1.75-3.95,3.88-4.01,4.74-.05.62,5.06,8.7,5.95,10.83,13.26,31.79,6.62,78.46-30.17,90.17-3.84,1.22-8.85,1.34-12.24,2.76-3.73,1.55-7.36,5.18-12.23,6.77-8.73,2.84-14.21.8-21.97,2.02-3.83.6-9.37,4.54-14.34,5.66-18.87,4.24-33.25-2.02-43.17-18.24l-8.96,2.62c4.11,21.66,5.27,44.57,14.64,64.67l1.26,18.51c11.7,8.35,19.39,24.08,21,38.21.4,3.5-.26,7.28.1,10.9.66,6.67,3.11,12.12,1.86,20.02-1.83,11.55-26.14,15.35-35.56,16.43l-24.37,2.12c-5.97-.2-12.04.28-18,0-13.28-.63-36.36-2.48-49.02-6.48-4.71-1.49-7.46-4.3-11.26-5.74-6.22-2.36-18.39-3.77-22.14-10.86-2.72-5.14-1.78-27.32-1.62-34.45.06-2.66,1.48-5.34,1.06-7.9-.25-1.54-4.1-6.17-5.21-8.86-5.51-13.27-5.06-32-9.1-46.89-6.31-23.26-16.13-45.78-21.65-69.33-1.26-2.92-4.66-6.16-5.06-.96-2.04,26.67,1.95,53.5,2.99,80.01.47,11.87-2.87,22.8-2.87,31.98,0,2.61,2.52,8.28,2.86,12.01.5,5.44-.23,11.48-.03,17.02.35,9.76,5.38,24.64-7.12,28.8-6.5,2.16-35.34,5.17-42.38,4.69-3.98-.27-7.88-2.97-9.96-2.97s-8.67,4.16-12.06,4.87c-25.68,5.34-82.07,6.12-107.21-.66-9.15-2.46-17.05-5.28-18.1-15.89-.72-7.24.81-28.09,2.59-35.18,6.54-26.05,28.8-41.53,54.55-45.19l1.07-1.22c1.23-4.61.31-9.09,1.11-13.84,1.43-8.49,8.2-15.41,5.54-25.43l-4-46.5c-31.57,39.36-91.84,44.4-122.79,1.32-18.65-25.96-19.75-56.66-23.19-87.3-.48-.44-8.43,3.06-11.9-1.59s-6.7-29.34-8.14-30.38c-11.34,1.54-23.81,7.67-35.38,5.91-4.4-.67-8.09-4.53-11.52-5.47-4.58-1.25-9.05-.77-14.31-2.69-11.15-4.05-20.6-14.6-22.64-26.35-.52-3,.69-6.57-.6-9.4-.8-1.77-5.78-5.37-7.46-7.54-4.11-5.33-6.74-13.18-7.06-19.94-.2-4.15,2.13-12.25,1.8-13.92-.16-.81-7.53-9.86-8.95-13.92-5.49-15.67-.89-39.22,16.02-45.83l.26-1.32-14.97-70.13c-2.33-10.74,6.63-24.79,14.96-30.79,8.81-6.34,19.9-6.64,28.84-12.22,1.19-3.61-8.84-31.49-9-38.85s3.42-8.65,10.08-9.5c-1.25-11.87-7.57-27.04-8.03-38.54-.42-10.45,11.24-11.29,14.23-5.16,5.04,10.32,6,27.31,8.83,38.66,3.94.08,8.95-.48,12,2.51,6.38,13.47,8.27,29.03,12.05,43.43,1.24,1.05,19.08-3.32,22.54-3.78,23.95-3.17,44.13-6.81,51.69,21.04,4.9,18.07,6.85,37.96,11.58,56.18,8.81,2.15,16.58,4.28,21.92,12.3,11.04,16.55-.05,35.1-3.54,52.12-.61,2.97-3.26,15.26-1.31,16.72l37.98,9.02c24.74-31.85,46.31-67.95,83.01-87.54.32-1.93-1.29-2.87-2.52-3.96-9.81-8.71-22.55-16.29-32.49-25.5-34.36-31.86-53.25-80.25-35.18-125.85-14.6-13.5-13.97-35.6-13.85-54.16.01-2.09,1.18-4.24,1.03-5.92-.22-2.42-3.8-5.06-4.53-7.49-4.99-16.75,12.32-19.37,24.04-22.05,1.55-.35,1.74.67,1.5-1.97-22.15-4.41-45.2-8.88-63.32-23.18-39.85-31.45,4.78-63.43,35.06-75.58,9.43-3.78,19.22-5.93,29.03-8.47C257.85,56.23,325.56,4.46,398.75.92l1.59-.92h15ZM328.35,32.99c-30.46,13.79-55.72,48.64-62.99,80.98-1.3,3.98-2.45,6.41-3,11-.12,1-.11,2-.61,2.92l1.13,2.06c7.7-2.15,15.61-1.73,23.48-1.98.67-.02,1.33.02,2,0,.33,0,.67,0,1,0,1-.02,2,.02,3,0,.33,0,.67,0,1,0,11.79-.17,25.33-.94,37,0,8.57.69,20.51,2.77,29.21,4.29,9.2,1.6,28.21,7.93,35.79,7.71,10.24,3.58,20.78,6.36,31,10,11.16,3.98,21.95,8.77,33,13,.19,1.16,16.07,8.38,18.67,9.83,26.03,14.53,51.71,31.99,75.32,50.16,19.21,14.78,36.48,31.55,54.35,47.63,5.42,4.88,8.39,2.51,14.99,3.5,7.44,1.12,14.76,4.62,20.19,9.82l1.44.03c2.06-4.39,6.16-7.71,9.02-11.99,14.53-21.76,19.9-56.81,6-79.98-5.27-14.19-20.87-27.64-35.54-31.96-1.57-.46-1.58.1-1.48,1.47.46,6.15,2.42,12.25,1.01,18.49-1.54-.29-2.14-1.99-2.99-3-.85-2.37-1.8-4.78-3-7-.34-.62-.68-1.35-1-2-.44-4.04-3.02-7.57-5-11-.33-.57-.52-1.24-1-2-18.64-51.86-64.52-94.45-112.31-120.15-52.85-28.42-116.8-32.77-169.65-1.83ZM224.36,150.97c-.41.16-.84,1.46-1.83,1.88-6.02,2.58-12.41,4.64-18.16,8.14l1.47,1.98c10.39-4.37,21.27-7.53,32.33-9.68,15.15-2.95,27.82-3.34,43.18-3.32,4.74,0,8.75.84,13,1,.66.03,1.33-.03,2,0l11,1c20.41,5.07,40.07,10.22,59.99,17,5.69,1.94,11.35,3.97,17,6,.29.11.7-.1,1,0l7,3c4.76,2.52,5.42,2.41,10,4,12.91,7.72,27.09,13.98,40.99,20,5.02,2.17,9.89,4.07,15,6,8.72,3.29,16.72,6.56,26,9,4.17,1.09,9.63,2.08,14,3,11.4,2.4,20.42,3.72,32,5,1.73.19,3.3.73,4.99,1l-.07-2.91c-5.07-.91-8.77-5.29-12.92-8.09-7.44-6.19-15.78-12.11-24.08-17.41-71.16-45.4-192.68-79.08-273.88-46.57ZM247.36,158.97c-1.76-1.26-6.33-.28-8.45.05-11.73,1.86-25.83,5.88-36.55,10.94s-21.06,10.08-18.76,23.26c3.58,20.47,50.73,34.78,68.74,36.73l3.06-31.43c-11.83-2.4-6.63-6.29.04-10.97,22.01-15.43,56.76-17.83,82.89-18.6l-27.81-7.67c-9.97-1.69-20.07-3.75-30.18-4.31-7-.39-16-.4-23,0-4.75.27-6.33,1.34-10,2ZM267.35,215.95c-1.02,7.27-2.01,14.63-2,22,10.31.51,21.25-.71,31.49,0,5.94.41,12.18,2.21,18.02,2.98,4.81.63,9.6-.51,14.49,2.01,1.16.83,5.48,4.88,6.44,6.06,2.21,2.73,4.46,11.64,6.56,11.94,8.46-1.52,18.6-1.75,26.98,0l4.01-9.01c.32-.37,1.59-1.63,2-2,6.19-4.39,12.96-6.28,20.51-6.98,16.23-1.51,33.24-1.09,49.48-.02,13.55.9,29,2.01,42,6.49,7.06,2.43,12.81,5.3,14.13,13.37,9.12-.8,19.7,3,28.4,2.95,1.1,0,3.02-.34,3.46-1.55,1.27-5.05,1.11-11.45,2-16.26.52-2.77,2.7-6.62,3-10,.09-.99-.04-2.01,0-3-.76-.68-17.63-.77-20.4-1.11-8.04-.96-17.4-2.62-25.6-3.89-.33-.05-.67.05-1,0-5.74-1.88-12.64-5.1-18.54-5.97-2.68-.39-.85.7-.46,1.97s1.91,3.52,2,4c.22,1.12-.07,2.73,0,4,.05.98.05,2.02,0,3-.63,11.56-2.25,5.93-8.98,2.48-3.87-1.98-7.97-3.93-12.02-5.48-7.02-2.7-15.22-4.51-23-5-.66-.04-1.34.02-2,0-9.83-.28-15.08,1.54-24,4-2.77.76-11.75,4.73-12.84,1.35-.98-6.35,2.1-14.34,5.84-19.34s16.13-10.03,16-11l6-1.01-31.75-14.73c-27.63-9.73-64.58-9.93-93.05-3.57-7.53,1.68-15.04,3.91-22.19,6.81-1.5,1.55-4.46,20.73-4.99,24.5ZM581.89,262.36c-6.99-6.4-17.17-14.34-25.25-19.23-2.05-1.24-7.14-5.32-8.8-3.17-1.09,1.42-4.22,18.53-4.5,21.5-.94,10.04.23,20.58-1.14,30.85-1.28,9.55-6.03,20.65-4.78,30.04.78,5.86,6.32,13.29,12.93,12.19,12.12-2.02,13.49-16.91,18.1-25.98,5.74-11.3,16.56-22.86,27.82-28.7,1.37-1.96-12.01-15.33-14.37-17.49ZM272.35,251.95c-2.24.12-4.84.45-7,1-.54.14-1.35-.15-1.99,0-.22,2.81.28,5.72.03,8.54-.11,1.27-1.04,2.64-1.04,2.96v20c0,5.73-1.57,14.23-2,20.5s-.68,12.03-1,18c-2.49-.86-4.83-2.56-7-4-4.5-7.39-1.11-18.45-.96-26.45.24-12.2-.81-24.46.96-36.53l1.99-2.99c-5.11-.63-9.41,1.21-12.96,4.76-1.48,15.37-3.53,32.15-.78,47.46,2.23,12.39,6.51,15.83,17.74,19.75,6.62,2.31,11.4,3.23,18.56,3.76.75-.1,2.73-4.87,3.44-5.76,3.68-4.66,8.05-8.24,12.92-11.6-2.7-4.83-3.14-8.19-3.92-13.39-1.12-7.44-1.06-12.54,0-20,.48.05.78-.03.98-.51.94-7.5,8.33-17.53,16.51-17.57,15.78-.08,18.93,22.14,17.51,34.08l-2,7.99,4.85-1.63c0-6.18.94-12.19,1.14-18.36.36-10.95,3.13-27.99-11.49-29.82-.92-.12-2.14.86-2.92.83-.57-.02.21-2.45-4.58-2l-37,1ZM433.33,256.94c-11.69.2-23.82-3.77-36.56-2.08-1.89.25-1.33,1.95-2.11,2.1-5.5,1.09-5.13-3.37-11.32,3.98-1.99,2.36-2.54,2.44-3.54,5.96-3.15,11.15-.81,45.91,6.54,55.03,6.78,8.41,17.66,12.03,28,14,14.86,2.82,37.2,3.67,50.66-3.83,3.15-1.75,6.18-3.54,7.33-7.16,3.35-3.48,4.8-6.25,6-11,.67-2.64.68-5.33,1-8,.04-.33-.04-.67,0-1,2.1-4.19,2.47-10.19,3-15,.07-.65-.06-1.34,0-2,.46-5.17,2.51-17.72-.31-21.69s-18.28-7.46-23.31-8.18l-25.38-1.12ZM316.21,286.8c2.81-6.9,4.35-16.77-6.16-15.7-7.27,5.4-4.33,18.76,6.16,15.7ZM340.34,282.94c-.02.33.02.67,0,1-.43,6.66-.74,13.43-2.01,19.99,8.72.99,15.39,6.89,22,12.01,1.41,1.79,2.87,3.48,3.98,5.5-.11,2.27-7.4.92-8.97.49-1.57-2.42-5.14-3.78-7.74-4.76-12.78-4.84-33.01-6.19-45.31.21-14.94,7.77-20.52,25.94-15.94,41.55,1.8,6.13,5.71,12.31,10,17,3.19,3.48,10.56,9.8,15,11,.31.08.69-.09,1,0s.69-.08,1,0c14.38,7.95,33.79,3.77,46.99-5,5.59-3.72,5.31-4.51,9-9,.29-.36.72-.63,1-1,1.02-1.35,1.18-1.71,2-3,1.8-2.84,5.28-5.62,5.01-10,1.94-1.02,4.23,2,4.49,2h17c1.19,0,5.18-.85,7.5-1,7.41-.48,15.73-.88,23-2,4.24-.65,9.84-1.87,14-3,7.49-2.03,12.81-7.84,20-2,.3.4.79.69,1,1,5.7,12.66,5.33,25.98,1,38.99-4.01,6.7-8.64,11.52-15,16-6.24,2.74-12.7,5.3-19.62,5.87-4.79.39-7.26-.54-11.37-.87-1.8-.14-4.67-.94-6.05-.58s-11.46,8.19-15.07,9.96c-5.28,2.58-11.3,4.88-16.88,6.62-10.33,1-20.74,1.89-31,0-5.5-1.01-9.2-4-14-3-11.35,2.36-14.12,3.93-26,1-9.99-2.47-22.36-8.15-25.04-18.98-3.3.22-6.9,1.78-10.26.95-1.63-.4-10.35-3.92-13.05-5.11-4.37-1.92-7.42-5.07-11.64-6.85,9.44,26.23,25.7,43.52,46.52,60.95,22.04,18.46,41.42,34.78,71.47,37.02,15.14,1.13,31.12-.38,45.99-3,2.7-.48,5.35-1.41,8-2,18.64-4.13,36.47-10.4,53.99-18,37-16.03,68.51-37.47,83.99-75.98.54-1.33.06-2.79.17-2.88.48-.38,1.31,0,1.83-.12,16.85,9.86,40.2,9.3,54.99-4,23.27-13.26,34.57-46.16,32-71.98-.95-9.58-8.53-23.5-16.67-28.83-15.25-9.98-37.9-.97-47.33,12.83-3.93,3.57-4.73,5.24-7,10-3.85,3.8-5.66,10.01-8,15-3.95,8.44-5.28,14.23-15.77,17.73-9.65,3.22-16.85-1.6-23.23-8.73-5.35-9.98-4.14-19.23-3-29.99.03-.33-.04-.67,0-1,2.95-2.29,5.94-24.08,5-25-1.58-.2-3.52.28-5,0-10.3-1.9-21.24-4.26-32-4l-.91.57c-.3,1.46,0,2.96-.09,4.42-.16,2.64.05,5.35,0,8l-7,35.99c-5.98,10.06-10.67,15.55-21,21l-22.51,3.99c-20.04.95-40.28-1.31-58.48-9.99-11.11-7.56-14.46-13.95-17-26.99-.43-2.22-2-7.91-2-9.5v-17c0-1.67-1.98-6.15-1.08-8.94l-.91-.56-25-2c-.09,2.65.13,5.35,0,8ZM49.37,334.92c.06-2.19.56-5.22-1.98-5.99l1,5.99h.98ZM57.38,365.91c-2.55-8.6-3.62-17.79-6.08-26.41-.32-1.13-.4-3.71-1.91-3.57.73,7.76,2.18,16.73,4.27,24.2.24.85,1.78,7.89,3.72,5.78ZM261.35,348.92c3.5,1.73,6.81,3.67,10.99,4l2-13-20.03-2.59-1.82,6.41c3.12,2.33,5.56,3.54,8.86,5.17ZM286.35,396.91c3.9,4.4,6.26,9.59,11.09,13.41,8.03,6.36,18.91,9.96,29.17,8.35,3.68-.58,8.97-4.21,11.36-4.47,3.04-.33,10.9,4.21,15.88,4.7,11.81,1.18,27.71.08,38.18-5.8,5.72-3.21,11.44-10.78,18.05-11.96,5.79-1.03,13.77,2.1,19.61,1.71,20.15-1.34,31.76-21.37,24.53-39.82-1.42-.98-24.37,5.13-28.5,5.77-13.06,2.02-26.52,2.46-39.71,3.28-16.39,28.77-59.9,40.62-87.99,22.67-5.57-3.56-9.68-9.42-15.66-12.83-.96-.55-1.8-1.16-2.99-1.01l1.98-1.45-6.08-15.43c-4.05-.38-8.83-.63-12.71-1.79-3.47-1.03-9.92-6.07-10.85-6.21-5.24-.8-2.61,15.89-1.89,18.95,3.59,15.3,22.02,22.68,36.55,21.95ZM65.38,372.92c-2.5.15-18.47,4.1-18.93,5.63l8.95,37.35c.85.82,18.22-3.29,20.98-3.98.55-.14,1.36.13,1.99,0,1.01-1.35-5.29-29.26-6.49-33-1.39-4.33-1.28-6.31-6.5-6ZM579.31,409.92c-3.98.78-9.47-2.45-12.99-.49-.9.5-8.35,14.25-10.17,16.81-2.65,3.73-6.08,7.01-8.83,10.66,15.48-.61,27.09-13,31.99-26.98ZM124.37,414.91c-5.67.73-14.57,2.38-20,4-1.3.39-2.66.59-3.92,1.09-1.17,1.63,2.98,7.11-.51,9.99-7.77,2.3-15.66,4.18-23.57,5.92-7.52-.67-14.57,2.52-22,3-2.42-2.15-2.9-9.66-4.46-9.82-11.29,3.16-25.89,4.33-31.26,16.43l18.75,84.85c4.42,5.71,8.22,9.61,10.97,16.52,0,6.46,2.53,13.06,0,19.41l4.01,1.58c10.07,9.21,9.96,23.63,8.09,36.32.22.65,5.85,5.34,6.9,6.67,4.52,11.13,3.85,22.71,0,33.99-.43,1.26-.52,2.83-1,4-2.22,5.36-7.39,4.67-1,12,8.6,9.86,17.64,5.2,29,3,19.07-3.69,38.07-8.62,56.99-13,10.15-2.35,24.66-2.05,32-10,.41-.21,1.35.05,2.04-.47,1.07-.81.67-1.98.96-2.53,3.71-1.99,4.8-8.04,5-12,.43-8.44-4.22-24.82-6-33.99-.06-.32.06-.68,0-1-3-15.34-6.72-30.69-10-45.99-4.38-20.47-8.91-40.93-13.02-61.47-.19-.49-.51-.56-.98-.51-1.36-10.77-3.72-21.4-6-31.99-1.62-7.53-3.43-20.32-5.69-26.81-4.29-12.32-14.81-10.54-25.31-9.19ZM95.37,416.92l-44.99,9.97c3.93.05,4.75,6.73,8.26,6.77,4.26.06,13.71-3.44,18.5-4.49,4.41-.96,11.74-1.18,15.54-2.45s-1.31-7.09,2.68-9.81ZM14.4,448.91c-1.18,3.84-2.22,6.06-1.78,10.21,2.18,20.79,12.34,44.92,14.79,66.24l3.46,3.52c2.13-1.34.83-2.03.68-3.61-1.88-19.73-9.75-51.4-14.84-71.2-.36-1.41-.61-4.95-2.32-5.16ZM519.32,461.9c-13.21,8.84-25.92,14.67-40.25,21.24-1.5.69-3.1.92-3.74,2.76-1.13,0-2.1-.03-3.23.23-13.24,3.06-28.62,11.92-42.69,14.34-3.94,5.7-25.33,22.37-26.92,27.07-.26.76-.17,1.57-.15,2.34,1.28,1.3,20.25-10.34,22.99-11.99,3.1-.18,5.78-.08,8.82.68,9.04,2.27,20.7,11.21,29.62,14.36,2.01.71,3.39,1.45,5.52.47,2.42-1.1,14.88-16.07,18.5-19.54,6.54-6.26,14.64-13.6,21.51-19.48,8.37-7.16,16.9-14.74,26.84-19.64,1.39-7.73-3.28-14.54-4.84-21.83-4.05,2.95-7.81,6.2-11.99,9ZM537.32,484.9h-1l-1,1c-12.21,6.07-35.69,28.7-46.52,38.97-4.44,4.21-11.84,14.46-15.47,17.02-4.39,3.09-10.45,2.43-15,0-.14-.29.3-1.19-.2-1.76-.25-.29-5.66-3.16-6.78-3.76-4.08-2.19-18.04-8.45-22-9.09-4.3-.7-4.46,1.5-7.02,2.61-14.08,6.13-26.94,14.6-41.03,20.69-9.58,41.38-14.83,83.83-16.97,126.28l30.26,1.23c4.12-.08,6.02,5.12,9.26,5.74,7.52,1.43,28.26.35,37.01.06,30.05-1,60.95-4.54,90.45-10.04,6.78-1.26,13.65-2.05,20.3-3.97,2.54-1.5,1.42-12.4,1.71-15.52.77-8.49,4.38-26.62,2.97-33.98-.42-2.21-11.69-16.84-14-20.04-.87-1.21-.71-2.99-2.97-2.48.13-1.76-.93-3.28-1-4.99.96-.88,5.82,2.25,7,2.99,9.38,5.94,20.75,18.12,27.39,27.1,10.5,14.2,16.85,31.14,22.11,47.89l1.82.86c1.46-.07,2.8-1.62,3.68-1.87,18.41-5.08,32.49-3.86,50.37-5.03,3.68-.24,8.95-3.52,14.13-3.95,7.27-.6,14.23,1.62,21.49.99-2.93-29.01-11.98-58.27-25.31-84.17-1.95-3.79-5.03-6.89-6.69-9.81-.79-1.39-1.35-4.27-3-7-3.68-6.1-7.39-12.55-12-18-.68-.8-.75-2.78-2.07-3.46l-2.93-.54c.36-2.21-.23-3.32-1.43-5.06-6.68-9.64-35.82-35.88-46.56-38.93-.49-.67-1.49-.68-2-1-1.69-1.07-3.14-2.86-5.42-2.92-1.72.94-2.87,4.03-3.58,4.92-4.09,5.17-7.4,9.39-11,15-1.28,1.99-1.8,2.85-3,5-4.62,8.29-6.74,17.71-10,23.99-2.28,4.4-6.02,10.29-6.92,16.58l-6.07,34.41c-2.32-32.21,5.35-61.68,23.17-88.29,1.18-1.76,12.1-14.28,10.81-15.67-9.58-1.47-29.58-15.59-35-2.01ZM377.34,537.87l-16.44-31.04c-7.49-2.52-15.39-3.37-22.81-6.18-3.55-1.34-13.17-7.39-15.42-7.6-2.7-.26-9.71,15.9-10.14,18.6-.39,2.47,1,5,.92,7.74-.1,3.55-1.51,6.9-1.09,10.49l36.31-17.74c6.17.25,18.35,19.7,24.62,24.29,1.36.99,2.09,1.86,4.05,1.44ZM185.01,499.24c-1.3-1.41-8.07-5.89-9.64-4.35-.38,11.89,3.4,23.52,6.01,35,5.63-.51,7.39-8.89,7.88-13.61.61-5.9-.04-12.48-4.24-17.05ZM235.36,643.86c-2.33,13.1-9.64,27.75-18,37.98,19.01.02,38.07-6.38,51.47-20.01,1.85-55.46,14.38-110.61,38.51-160.45-3.21-.59-6.72,3.75-8.99,5.51-22.36,17.3-33.18,33.6-48.99,55.99-1.07,1.51-3.32,3.71-5,6-.97,1.31-7,7.77-6.98,8.5,7.71,5.42,16.78,11.46,18.49,21.47-7.87-8.59-19.82-11.69-30.49-15.49,12.43,15.43,13.33,41.63,9.98,60.5ZM407.33,505.89l-35.98,1.49,13.49,23.48c4.52-5.5,11.14-10.09,15.9-15.08,1.38-1.45,7.88-8.46,6.6-9.89ZM331.35,530.89c-1.11.62-2.56,1.21-4,2-2.17,1.19-6.91,4.52-8,5-5.24,2.31-12.18,3.59-13.8-3.71-.74-3.34.56-5.54.53-8.52,0-.72-.37-4.06-1.72-3.76-4.22,15.3-8.32,30.53-12.01,45.98-.21.9-.74,1.88-1,3-5.08,22.05-8.12,41.37-10,63.99-.15,1.84-.84,3.73-1,6-.65,9.46-.36,19.39-.9,28.9,7.68,1.69,15.12,4.15,22.88,5.62,5.7,1.08,24.8,4.43,29.28,3.23,1.98-.52,2.74-2.36,6.21-2.78,7.2-.89,14.35,1.48,21.53,1.03.02-15.34,1.58-30.72,2.99-45.99.99-10.66,2.52-21.29,3-31.99l9.91-52.9c-2.31.06-4.02-1.43-5.91-2.09l-20.68-22.91c-2.51-.64-14.28,8.22-17.31,9.91ZM400.85,529.91l-1.49,1.49.47.47c.55-.64,2.01-1.3,1.02-1.96ZM10.39,566.88c.23,6.64,1.33,9.01,4.01,14.99,2.02,1.47,4.93-4.9,5.99-6,2.27-2.35,6.38-6.11,9-8,1.82-1.31,6-1.51,7.82-4.71,1.29-2.28.19-4.07.39-4.8.06-.23,5.04-3.24-.21-3.48,2.88-5.23-2.81-14.04-8.56-14.94-15.08-2.37-18.83,15.59-18.44,26.94ZM30.38,580.87c-5.6,4.99-10.48,13.46-11,21-.47,6.84,1.54,12.42,5.97,17.55,3.13,1.53,4.88-6.08,6.03-7.55,3.62-4.65,11.74-9.89,17.82-10.18,1.03-2.53.98-5.15,1.18-7.82,1.12-14.94-5.82-25.63-20-13ZM198.36,640.86c-3.19,5.78-9.9,7.95-13.54,11.95-2.76,3.03-4.77,8.9-7.45,12.54-3,4.07-7.82,8.2-11.99,11,9.36,4.36,21.96,8.56,32.38,7.38,16.81-1.9,25.45-24.72,28.6-38.88,3.05-13.7,3.08-27.47-.28-41.21-4.67-19.08-9.2-25.23-29.34-27.65-1.54-.18-4.96-1.08-4.38,1.37,2.4,17.22,14.79,47.59,6.01,63.49ZM55.38,613.87c-5.72-3.73-12.1-.63-15,5-.35.32-.66.67-1,1-4.43,4.32-5.25,10.95-5,17,.45,10.73,7.67,21.35,19,21.99-5.7-7.85,1.94-10.96,4.48-18,1.2-3.32,1.25-4.59,1.52-7.98.1-1.29-.19-2.79,0-4,.48-.11.93-.53,1-1,.77-4.95-.73-11.21-5-14ZM560.33,758.84c2.02-.39,1.63-2.12,1.99-3.5,1.31-5.01,1.72-10.56,3.52-15.47,4.26-11.59,14.4-18.97,21.5-28.56-.54-6.32-3.51-12.67-4.01-18.96s1.95-12.5,1.36-17.27c-1.57-12.63-11.44-30.2-17.88-41.19-4.33,24.2-4.14,48.99-6.54,73.44l.05,51.53ZM169.36,658.87l-10.5.94c-4.94,3.75-13.17,2.54-19.5,4.05l1.12,6.88c8.38,1.99,15.12-.12,22.12-4.87l6.75-7ZM129.34,666.89l-12.97,1.98c3.37,9.05,1.86,19.93,7.63,27.91,2.6-.77,12.59-2.43,13.29-4.57,1.15-3.54-3.67-9.59-4.88-12.9-.64-1.76-2.63-11.97-3.07-12.42ZM678.3,668.86c-6.25-.14-20.03-2.55-19.91,5.37.08,5.21,2.53,27.17,3.91,31.62.29.94,1.24,3.05,1.99,3.5l2.46.56c9.8-.67,21.47.07,31.07-1.04,1.44-.17,3.49-.46,4.51-1.49,3.44-3.48-1.56-28.06-3.02-33.52-.28-1.05.22-2.79,0-4-.66-.07-1.34.06-2,0-.33-.03-.67,0-1,0-6.06-.15-11.99-.87-18-1ZM649.16,672.99c-8.2-1.26-51.25,3.61-54.37,9.84-1.66,7.03.53,14.1,1.52,21.01,18.37-5.99,36.64-8.04,55.99-7l-3.15-23.86ZM269.35,676.86c-8.5,3.87-16.1,9.61-25.19,12.29-15.13,4.47-24.69,2.47-39.29,2.61-4.76.05-9.75,2.27-14.96,2.1-15.21-.52-31.54-9.39-46.53-12.01-.13,4.47,1.85,8.94.96,13.47-.71,3.65-4.65,4-4.98,5.23-.37,1.34-.11,5.12-.02,6.84,1.32,25.22,6.71,58.99,23.06,78.9,26.53,32.3,75.14,29.63,100.93-2,2.06-2.53,7.59-9.85,8.47-12.52,2.31-7.04-1.11-25.05-1.49-33.4-.32-7.3-.77-14.79-1-22-.42-13.14.4-26.39.04-39.53ZM303.3,682.9l-23.94-5.05c.15,9.29-.68,18.68,1.15,27.83l22.83,5.17-.05-27.95ZM530.32,681.85c-42.43,7.15-85.93,9.69-128.98,9-.38,1.08,1,2.18,1,2.49v25.49c6.81,1.54,12.95.03,19.45-.02,9.01-.07,17.7-.47,26.54-.98.99-.06,2.01.06,3,0,15.68-.96,31.39-2.28,46.99-4.01l-5.51-8.97,9.1,8.66,27.4-3.69c.04-1.32.05-2.66.01-3.99l2.44,3.05,17.58-3.53c2.07-1.56,2.04-23.52,1.97-27.52-7.11.75-13.96,2.82-20.99,4ZM329.35,686.85l-21-3v27.99c6.95.98,13.94,2.37,21,2v-26.99ZM337.34,718.84c1.04,2.6,4.03,3.54,6.59,3.91,12.24,1.78,26.48,1.77,38.9,2.1,3.65.09,7.41,2.38,11.37-.15l-1.9-38.8c-3.91.36-7.56-.93-11.41-1.1-11.19-.47-19.71,1.31-31.54.05-3.65-.39-7.39-1.96-11.06-.56l-.94,34.55ZM704.3,779.83c.22-.69,1.19-1.56,1.52-2.93,4.85-19.8,2.81-39.82-7.51-57.57-1.78-1.09-21.58-.57-25.55-.53-3.46.04-5.58,1.41-9.71.81-8.18-1.18-8.23-6.84-9.89-13.63-11.76-1.18-24.25-.08-35.89,2.33-4.14.86-15.16,3.41-18.28,5.47-.92.61-1.3,2.03-1.68,3.06-.11.29.1.7,0,1-1.2.2-1.48,1.52-2,2-2.34,2.15-5.47,4.07-7,7l-1,1c-1.5.28-4.92,5.42-6,7-2.83,4.14-8,13.64-8,18.5v14.5c4.01-1.27,8.04-2.59,12-4,2.28-.81,4.39-1.95,6.9-2.09-.43-12.22,7.27-6.75,11.09.09,6.65,11.9,8.82,33.89,2,45.99-.89,1.58-2.18,2.77-3.5,3.98l-3.07-4.91-8.43,2.95c4.11,11.62,15.32,13.83,26.53,13.02,10.09-.73,18.37-9.16,24.46-17.03.74-.96,1.73-1.67,2-3,.34-.32.7-.64,1-1,4.01-4.82,4.95-10.46,9.99-14-.49,4.99-1.53,10.21-2.99,15-.84,2.75-2.95,8.69-4.05,11.26-.56,1.31-2.32.12-1.95,1.73,1.99-.21,4.45.43,6.31-.01.75-.18.61-1.79,1.37-1.96,1.66-.37,3.64.27,5.59-.25,2.6-.7,9.23-6.5,11.27-8.72,3.14-3.43,5.26-8.35,7.45-12.04,2.82-4.74,4.86-10.41,8.99-14l-.99,16c-2.42,2.12-2.88,7.29-5,9.99,4.56.53,6.45-3.46,8.59-4.86,8.62-5.64,11.54-7.9,15.41-18.13v-1c.1-.3-.1-.7,0-1ZM528.32,717.84c-6.53,1.02-13.49,1.11-19.99,2.49,6.9,7.56,14.85,14.22,21.99,21.5.13.14-.17,1.23.29,1.68,1.4,1.36,4.92,2.08,5.55,3.98l2.17,31.33c3.85-.25,7.44-1.64,10.99-3,.46-.17,1.38.14,2,0-1.7-7.44-.99-15.36-1-22.99,0-1,0-2,0-3,0-.33,0-.67,0-1v-34.99c-7.4.8-14.69,2.85-22,3.99ZM370.34,764.83c0-3.01-5.27-11.72-6.5-15.99-1.57-5.42-2.53-11.39-2.49-17.01-7.07-.09-15.3-.09-22.24-1.25-8.93-1.5-7.41-7.41-10.45-8.55l-48.31-7.19,7.99,134.98c22.34.98,45.62,4.41,67,10.99.12.04.35.47,2,1,3.02.97,6.01,1.96,9,3-.07,0-.59.86-1,1-2.29-.44-5.54.31-8,0-.43-.17-1.06-1.2-2-1l-66.5-12.03c-6.13,1.44-10.53,20.89-4.76,21.98,2.11.4,4.51-.29,6.68.14,27.93,5.58,51.73,17.93,80.59,22.9,8.81,1.52,17.7,2.47,26.51,4.03l2.34-1.68-2.84-106.84-.47-1.53c-.93-1.41-28.09-7.46-32.53-8.96-2.36-.8-5.77-2.03-8-3-1.31-.57-4.49-1.73-5-2-2.13-1.14-8.84-6.04-10.71-7.78-1.07-.99-2.79-1.04-2.28-3.21l36.99,7.99c5.99,2.63,19.26,5.5,26,6,5.54,2.43,14.61,1.09,17.74,6.76,7.21,24.18,16.78,47.87,23.97,72.01,1.57,5.27,3.19,10.64,3.29,16.22,18.16-2.62,35.38-8.49,53.63-10.86,14.91-1.94,32.39-3.43,47.35-3.14,6.36.12,12.59,1.56,18.99,1.01l-16.99,2.99c-.66.05-1.35-.07-2,0l-1,1c-26.29,2.84-53,3.5-79.35,7.14-3.8.53-16.65,2.03-19.04,3.75-1.9,1.37,2,31.72,6.07,33,2.77.87,19.63-8.22,23.81-9.91,24.17-9.8,51.05-17.11,77.51-13.98,6.35.75,13.65,3.74,19.99,5,1.21-9.67-4.5-17.92-6.72-26.77-3.45-13.81-4.9-30.04-6.28-44.22-1.71-1.73-18.03,5.16-21,6-3.53,1-17.09,5.11-19.44,4.96-4.85-.32-7.01-5.26-9.57-6.45-6.42-2.99-25.75,10.86-35.87,5.88-5.75-2.83-7.28-8.58-5.89-14.67,1.98-8.64,26.06-12.07,33.69-14.79-1.88-18.54,19.71-16.4,31.17-22.54l-3.6-28.34-29.21-29.85c-17.9,1.46-35.83,3.72-53.77,4.83-7.02.43-43.08.33-45.79,1.95-.98.59-1.7,2.92-3.16,4.08-6.51,5.17-23.27-.49-31.52.98l3,31.99h-1ZM596.31,770.83l-34.99,12.01c.76,3.57,4.38,5.18,5.7,8.79,1.68,4.62,1.25,10.34,1.31,15.19,6.58-1.46,27.88-8.18,30.51-14.03,1.51-3.35-2.87-17.24-2.53-21.96ZM559.32,811.82c1.81-2.07-.03-15.5-1.26-18.23-1.44-3.18-6.27-6.26-7.88-9.57-3-.45-4.76,2.44-6.34,2.93-7.6,2.34-18.52,2.97-26.7,5.98-.22.08-3.31,2.48-2.8,3.39,10.89,4.59,10.33,16.28,10,26.5l27.99-8.99c.32-.07.68.06,1,0,.61-.12,1.4.13,2,0,1.19-.26,3.19-1.08,4-2ZM516.14,813.65c2.94-5.09-4.29-6.03-8.06-5.57-3.87.48-22.59,6.22-26.03,7.97-5.47,2.78-5.02,8.86,1.3,8.36,4.35-.35,22.15-6.18,27-8.04,1.07-.41,5.49-2.21,5.78-2.71ZM351.34,944.8l47.33-6.91c3.12-1.91,1.85-21.35-.26-25.41-1.37-2.19-28.57-3.95-33.46-4.79-12.18-2.07-23.86-6.25-35.61-9.88h-1c-.62-.11-1.49.16-2,0-3.81-1.23-8.81-4.78-13.21-6.28-34.68-11.86-82.89-5.32-88.52,38.03-1.16,8.91.38,13.23,9.67,15.81,4.98,1.38,16.03,2.19,21.53,2.47,31.53,1.62,64.11-1.07,95.53-3.04ZM487.33,909.8c-.76.31-1.83.53-3,1-.29.12-.72-.12-1,0l-2.98,2.34-21.89,8.29c.3,5.91-2.81,16.31-.97,21.7.96,2.8,10.77,5.7,13.83,6.66,28.73,8.99,88.48,13.51,117.24,5.76,13.63-3.67,8.9-20.41,4.62-30.13-17.28-39.22-72.07-30.67-104.15-17.36-1.06.44-1.57,1.69-1.72,1.75ZM402.23,955.69c-.09-3.75,1.89-11.05-3.52-11.6-13.69.94-27.31,4.21-40.88,5.69-35.58,3.88-74.23,5.32-110.01,3.06-4.01-.25-21.75-4.19-22.88-3.92-2.51.61-2.19,8.13-.14,9.94,7.14,6.3,38.11,6.6,48.1,6.9,19.29.58,44.81,1.03,63.86-2.05,5.52-.89,4.32-2.74,7.24-4.76,6.19-4.3,10.85-6.52,15.35,1.35,14.2.13,28.96-1.03,42.9-4.59ZM476.33,957.79l-18.99-6.99c-1.19,9.02.66,9.9,8.3,13.18,2.96,1.27,6.71,1.61,9.69,2.81.21.09,1.21,2.09,3.43,3.06,21.55,9.48,85.87,8.93,108.77,2.65,8.67-2.37,13.6-3.1,11.78-13.71-39.09,7.57-80.8,6.96-119.98,0-.37-.07-1.23-1.07-2-1h-1Z"/>
    <path class="cls-24" d="M537.32,484.9c5.42-13.58,25.42.54,35,2.01,1.28,1.4-9.63,13.91-10.81,15.67-17.82,26.61-25.49,56.08-23.17,88.29l6.07-34.41c.9-6.28,4.64-12.18,6.92-16.58.49,1.31,1.91.94,3,1l-.4,3.99c4.47,1.12,10.19,1.11,14.12,3.69,1.89,1.24,2.41,3.45,4.31,4.78,5.49,3.84,8.83,2.16,13.96-1.08l1.95.07c2.29.93,15.56,13.93,17.57,16.51,2.38,3.06,5.8,11.81,9.18,12.82,7.51,2.25,31.33-10.69,39.29-13.79,1.66,2.92,4.74,6.02,6.69,9.81,13.33,25.91,22.39,55.17,25.31,84.17-7.26.63-14.22-1.59-21.49-.99-5.18.43-10.45,3.7-14.13,3.95-17.88,1.18-31.97-.04-50.37,5.03-8.96-28.9-18.56-63.13-49.78-74.69-1.09-.41-6.17-2.8-5.21.71-1.18-.74-6.03-3.88-7-2.99.07,1.71,1.13,3.23,1,4.99-.11,1.52-1.61,5.31-1.87,7.63-2.43,21.42-4.88,42.88-6.13,64.36l-1.98-1.01,1.99,5.01c-29.5,5.5-60.39,9.04-90.45,10.04-8.75.29-29.49,1.37-37.01-.06-3.24-.62-5.14-5.82-9.26-5.74l-30.26-1.23c2.13-42.45,7.39-84.9,16.97-126.28,14.09-6.09,26.95-14.56,41.03-20.69.95,3.15,5.44,5.56,8.3,7.19,4.58,2.61,16.21,8.57,20.85,10.15,2.83.96,6.81.93,9.84,1.64-1.37-2.17-1.89-4.73-3-6.99,4.55,2.43,10.61,3.09,15,0,5.52,6.22,8.42-1.9,11.46-4.57,2.6-2.28,7.63-4.66,9.91-6.6,4.78-4.07,8.05-9.42,11.57-13.35,5.65-6.31,24.77-19.48,27.83-24.72.66-1.14,2.58-6.15,3.22-7.75ZM415.75,566.3c2.64-2.05,6.81-6.18,10.13-6.38,1.8-.1,3.82,1,5.91,1.01,22.52.1,45.1-.63,67.57.53,5.11-1.24,12.93-18.53,18.41-21.62,2.12-1.2,4.19-.87,6.27-1.73,10.01-4.12,10.83-19.92-2.52-21.02-5.76-.48-10.49,6.31-11,11.53-.33,3.38,3.17,6.73,2.32,9.2-.66,1.92-15.62,17.37-17.23,17.86l-75.26-1.3c-4.96,6.85-16.67,12.1-18.77,20.25-1.06,4.11-1.32,20.5-2.38,22.11-.22.33-3.95,1.09-5.39,2.11-5.86,4.17-3.47,14.17,2.98,15.07,10.4,1.44,14.1-8.52,7.78-15.66l2.2-23.48c.27-.99,7.55-7.36,8.99-8.48ZM508.32,579.87l1-4.99-90.88-.9c-2.1,19.34-4.08,38.85-4.05,58.32,2.26,4.83,14.79,19.64,19.49,20.5l38.77.69c.9-1.22,8.52-3.25,5.67-5.64.77-.38,2.25-1.88,2.02-2.99l3.49,2.04c8.12-4.58,16.63-8.96,23.28-15.75,3.71-16.84,4.09-34.24,6.21-51.29-1.66-.07-3.35.09-5,0ZM613.62,601.18c-8.87,10.03,6.7,23.33,15.1,13.61,9.2-10.63-6.36-23.5-15.1-13.61Z"/>
    <path class="cls-25" d="M528.32,279.94l4.03,1.53c-.9,7.9-3.13,15.57-4.03,23.46-.04.33.03.67,0,1-3.96,8.89-3.58,22.64,3,29.99s13.58,11.95,23.23,8.73c10.49-3.5,11.82-9.29,15.77-17.73,2.63.17,2.5-1.53,3.32-3.18,1.78-3.62,3.04-8.36,4.68-11.81,2.27-4.76,3.07-6.43,7-10,16.1-14.63,41.39-8.63,57.97,2.53l6.03,13.47c2.57,25.83-8.73,58.73-32,71.98-15.99,9.11-28,11.47-46.2,6.71-3.7-.97-5.45-3.49-8.79-2.71-.52.12-1.34-.26-1.83.12-.11.09.36,1.55-.17,2.88-1.96-.02-2.78,1.35-4.01,2.48-9.51,8.75-17.3,19.37-26.97,28.03-30.04,26.88-65.52,42.42-101,60.47-2.72.77-3.41,1.01-6,3-2.64.59-5.3,1.52-8,2-1.02-1.97-3.48-.7-4.99-.51-13.51,1.68-23.14,2.47-36.82,1.74-1.94-.1-3.39-.67-4.18,1.77-30.04-2.24-49.43-18.56-71.47-37.02-20.82-17.43-37.08-34.72-46.52-60.95,4.22,1.77,7.28,4.92,11.64,6.85,2.7,1.19,11.42,4.71,13.05,5.11,3.37.83,6.97-.73,10.26-.95,2.68,10.83,15.04,16.51,25.04,18.98-.8,2.62,3.29,2.54,4.77,2.71,6.47.72,11.98.38,18.25-1.23,1.68-.43,3.54.13,2.98-2.47,4.8-1,8.5,1.99,14,3-.57,3.16,1.57,1.69,3.43,2.02,10.48,1.85,17.69,1.05,27.56-2.02,5.58-1.73,11.6-4.04,16.88-6.62,3.61-1.76,13.68-9.59,15.07-9.96s4.24.44,6.05.58c-.56,3.03,1.53,1.92,3.45,2,10.74.44,18.99-1.18,28.5-6.11l-.96-.89c6.36-4.47,10.99-9.3,15-16,7.25-12.12,7.01-27.08-1-38.99-.21-.31-.7-.6-1-1-.91-1.21-.6-2.89-3-3.49,2.28-1.32,4.65-2.27,7-3.5,10.32-5.45,15.02-10.94,21-21,6.28-10.57,6.78-24.23,7-35.99.05-2.65-.16-5.36,0-8,10.11-.36,19.86-.9,29.99-.01l-28.99-4.99c10.76-.26,21.7,2.1,32,4ZM582.31,360.92c2,7.51,7.59,12.07,15.56,11.86.86-.02,1.34-.86,1.44-.86,1.81-.04,3.4-.85,5-1,.15-.01.94,1,1.63.95,22.63-1.56,38.28-31.97,29.36-51.94-10.89-24.39-37.12-8.07-47.43,8.06-5.8,9.08-8.29,22.69-5.57,32.93ZM423.33,423.91c-3.48-4.68-10.34,2.76-15.15,5.35-12.44,6.7-23.24,11.33-37.36,13.68-1.84.31-4.05-1.27-3.49,1.97-13.9,1.09-24.61-.24-37.02-6.48-2.58-1.3-6.48-4.7-8.49-5.51-3.33-1.35,1.01,7.18,1.52,7.99,11.98,19.03,47.92,15.26,66.23,8.74,1.66-.59,6.32-1.29,5.76-3.74,8.26-3.07,19.85-7.86,26.49-14,1.24-1.15,2.42-2.29,3.06-3.91.25-1.13-.87-3.17-1.55-4.09Z"/>
    <path class="cls-5" d="M328.35,32.99c8.02-3.63,10.31-3.58,18.33-4.07,4.22-.26,6.93-2.8,7.36-2.9,82.46-18.77,153.38,9.87,209.28,69.96l11.75,28.74c7.55,27.43.18,55.39-12.55,79.93-2.51,4.84-6.81,9.61-9.05,14-.85,1.66-1.5,2.59-.14,4.3-23.6-18.17-49.29-35.63-75.32-50.16-2.6-1.45-18.47-8.67-18.67-9.83-.01-.07,1.18.15,1-.99-10.6-3.65-19.19-8.42-29.46-12.05-1.3-.46-3.68-1.83-4.53.04-10.22-3.64-20.76-6.42-31-10,15.01-.44,24.4-12.96,34-22,.16-.15,1.3.56,2.1-.6s.51-3.24.9-4.39c.1-.3-.1-.7,0-1,.02-.07.77-.33,1-1,.1-.3-.1-.7,0-1,2.39.5,2.18-1.11,2.75-2.7,5.92-16.56,5.71-35.65-5.71-49.82-1.34-1.66-6.31-5.05-6.58-5.42-.76-1.06-.1-3.22-.61-3.88-.34-.43-3.8-.61-5.18-1.36-3.33-1.81-8.3-6.67-12.64-8.31-14.91-5.6-36.26-4.38-50.55,2.5l-1.45-1.98c.82,3.55-3.07,3.96-5.76,5.69-.93.6-1.17,1.73-2.02,2.24-1.34.8-4.06.44-5,1.36-.19.18-1.91,3.93-2.23,4.7-3.36,2.53-5.05,2.83-8,7l-4,1.02c1.15,1.96-.26,4.59-1,6.98-.09.3.1.7,0,1-4.16-.56-2.32.47-3.11,2.35-7.6,18.19-6.79,32.44,2.14,49.9.58,1.13,3.4,1.59,1.97,5.74-11.72-.25-23.7-1.96-35.52-1.02-1.77.14-3.44.35-4.48,2.02-7.87.25-15.77-.17-23.48,1.98l-1.13-2.06c.51-.92.49-1.92.61-2.92,1.21,5.01,5.32,2.5,9.35,3.05,3.66-3.1-1.2-5.13-1.33-5.74-1.62-7.51.69-14.84.97-22.3-1.33-.14-1.76,2.27-2.16,3.32-1.26,3.3-2.75,7.36-3.83,10.67,7.27-32.34,32.53-67.19,62.99-80.98Z"/>
    <path class="cls-24" d="M371.34,764.83l-3-31.99c8.25-1.47,25.01,4.19,31.52-.98,1.46-1.16,2.18-3.5,3.16-4.08,2.71-1.62,38.77-1.52,45.79-1.95,17.94-1.11,35.87-3.37,53.77-4.83l29.21,29.85,3.6,28.34c-11.46,6.14-33.05,4-31.17,22.54-7.63,2.72-31.71,6.16-33.69,14.79-1.39,6.09.14,11.84,5.89,14.67,10.11,4.97,29.45-8.87,35.87-5.88,2.56,1.19,4.72,6.14,9.57,6.45,2.36.15,15.91-3.96,19.44-4.96l6,34.99c-14.96-.29-32.44,1.2-47.35,3.14-18.25,2.37-35.48,8.24-53.63,10.86-.1-5.58-1.72-10.94-3.29-16.22-7.19-24.14-16.76-47.84-23.97-72.01-3.13-5.67-12.2-4.33-17.74-6.76.88.07,4.72-.48,5.99-.5-2.24-2.65-5.68-3.15-8.41-4.62-1.17-.63-1.36-2.4-1.75-2.66-1.01-.66-19.91-5.23-23.08-6.29-1.01-.34-.78-2.62-2.74-1.94Z"/>
    <path class="cls-18" d="M563.32,95.98c15.51,16.68,35.01,39.77,46.99,58.99.48.76.67,1.43,1,2,1.19,2.8,1.95,6.75,3.22,9.33.6,1.22,1.73,1.56,1.78,1.67.32.65.66,1.38,1,2l-.98.54c.48,2.58,2.34,4.52,3.98,6.45.85,1.01,1.45,2.71,2.99,3,1.42-6.24-.55-12.35-1.01-18.49-.1-1.37-.09-1.93,1.48-1.47,14.67,4.32,30.26,17.77,35.54,31.96.51,1.38,3.09,8.94,3.07,9.45-.03.78-3.35.07-2.07,2.55,4.04-1.5,4.6,7.49,4.87,10.63,1.13,12.98-.4,25.63-3.57,38.16l-8.3,19.19c-2.86,4.28-6.96,7.6-9.02,11.99l-1.44-.03c-5.43-5.2-12.75-8.7-20.19-9.82-6.61-.99-9.58,1.38-14.99-3.5-17.87-16.08-35.14-32.85-54.35-47.63-1.36-1.72-.71-2.65.14-4.3,2.24-4.38,6.54-9.16,9.05-14,12.74-24.53,20.11-52.5,12.55-79.93l-11.75-28.74Z"/>
    <path class="cls-24" d="M355.34,860.81c-21.38-6.58-44.66-10.01-67-10.99l-7.99-134.98,48.31,7.19c3.03,1.14,1.52,7.06,10.45,8.55,6.94,1.16,15.17,1.16,22.24,1.25-.04,5.62.92,11.59,2.49,17.01,1.24,4.27,6.5,12.98,6.5,15.99,0,1.93-1.34,4.2-2.01,5.99l3.03.02-.98,1.94c2.06-.09,3.48,1.4,4.97,2.05l-36.99-7.99c-.51,2.17,1.22,2.22,2.28,3.21,1.88,1.74,8.58,6.64,10.71,7.78-1.66,1.04-1,3.79-1.02,5.48-.29,24.06,3.95,47.93,3.02,72.01l2,5.49Z"/>
    <path class="cls-19" d="M597.31,716.84c2.49-.33,4.1-2.41,6.34-3.26,2.79-1.05,10.25-3,13.27-3.64,5.51-1.18,32.26-5.31,35.16-1.86.96,7.18,4.06,9.54,8.81,13.77,11.89-1.99,24.34-.45,36.42-.51,2.13,1.02,3.51,6.37,4.3,8.7,4.51,13.25,6,25.91,4.07,39.89l-3.37,10.9c-2.33,2.59-3.34,5.33-6.53,7.97s-8.29,4.11-10.47,6.03l.99-16c-4.13,3.58-6.17,9.26-8.99,14,.3-2.86-.57-2.44-2.5-1-7.79,5.78-13.52,9.42-23.49,11,1.46-4.78,2.5-10,2.99-15-5.04,3.54-5.98,9.18-9.99,14,.3-2.86-.57-2.44-2.5-1-12,8.92-19.39,14.13-34.49,7,6.36-15.84,4.39-29.28-2.01-44.52-.31-.73-1.06-3.39-1.99-1.47-3.82-6.84-11.53-12.31-11.09-.09-2.51.14-4.62,1.28-6.9,2.09-2.79-2.62-6.82,2.01-10,2v-14.5l6-16.5c1.08-1.57,4.5-6.72,6-7,.07-.01-.15,1.18.99,1,.14-.61-.18-1.64.01-2,1.53-2.92,4.66-4.85,7-7,2.95.5,1.61-.88,2-2,.1-.3-.11-.71,0-1Z"/>
    <path class="cls-14" d="M155.37,450.9c-1.85.96-.86,3.52-.57,5.05,1.78,9.32,4.61,18.48,5.59,27.96.46-.13.83-1,.98-1.01.48-.05.79.02.98.51,4.11,20.54,8.63,41,13.02,61.47-1.89.95-.62,3.38-.36,4.84,2.3,12.66,5.19,25.45,8.06,38,.4,1.76-.52,3.74,2.3,3.15.06.32-.06.68,0,1-3.74,4.59-.21,4.99-.03,5.69,1.84,6.97,2.72,16.32,4.17,23.66.33,1.68.38,3.45,1.86,4.64-.2,3.96-1.29,10.01-5,12,.67-1.24,2.6-4.74,1.51-5.99-10.57,6.49-24.14,9-36.3,11.69-14.31,3.16-28.98,4.95-43.38,7.61-10,1.85-26.34,8.46-35.53,3.9-4.03-2-2.66-5.78-6.28-6.21.48-1.16.57-2.74,1-4,2.41.75,3.29-4.64,3.55-5.95,1.88-9.42,2.68-20.19-3.55-28.04-1.06-1.33-6.69-6.02-6.9-6.67,1.86-12.69,1.97-27.11-8.09-36.32l.88-.82c-5.31-4.2-1.58-11.9-4.88-20.18-2.76-6.92-6.55-10.81-10.97-16.52l-18.75-84.85c5.37-12.1,19.96-13.26,31.26-16.43,1.57.16,2.04,7.67,4.46,9.82,1.38,1.23,1.61,1.09,3.41,1.04,5.7-.16,12.95-2.79,18.59-4.04,7.9-1.75,15.8-3.62,23.57-5.92,3.49-2.88-.66-8.36.51-9.99,1.26-.5,2.62-.7,3.92-1.09.97,1.88,3.5.81,5.04.55,4.47-.74,9.05-1.64,13.51-2.53,2.17-.43,3.38.95,1.46-2.03,10.5-1.35,21.02-3.13,25.31,9.19,2.26,6.49,4.07,19.27,5.69,26.81ZM46.38,450.9c-1.16-2.16-5.17.26-6.35,1.15-6.51,4.9-2.68,15.02-.93,21.67.46,1.74-.62,3.77,2.28,3.17.34,1.66.67,3.34,1,5-1.85.96-.87,3.52-.56,5.05,1,5.05,2.43,11.29,4.56,15.95.03.33-.02.67,0,1,.09,1.32-.1,2.68,0,4.01h2c.46,1.94.69,4.87,1,6.99.01.08-.86.63-.77,1.33.52,3.78,4.83,4.32,5.58,6.35,3.53,9.49,5.32,28.09,7.89,39.15.41,1.76-.53,3.74,2.3,3.15.68,3.32,1.32,6.68,2,10-2.33,1.86.48,5.43.02,8.01l.98-1.01c.03.18.64,1.05,1,3-1.64.92-.1,4.72,1,6,.05.33-.04.67,0,1,.4,2.98.93,5.98,1.03,8.99h1.97c.04.34-.04.68,0,1.01.02.16-1.19.87-.81,3.13,1.04,6.22,4.92,25.42,7.81,29.86,1.91,2.92,4.91,5.23,8.45,5.85,13.6-2.17,27.04-5.29,40.55-7.85.98,1.75,3.65,1.02,5.24.76,6.19-1.02,36.6-6.28,39.84-8.31,1.19-.75-.13-1.38-.09-1.44.57-.83.69-1.75,2-2l.9.98c5.35-11.09-1.06-23.12-3.9-33.98-1.65-6.32-3.44-12.62-5-19l-15-76.98c-4.63-15.14-6.06-37.66-11.69-51.79-1.92-4.81-5.37-6.94-10.66-6.09-26.75,7.07-57.35,8.24-83.63,15.89Z"/>
    <path class="cls-25" d="M365.34,277.94c-.12,11.19-.12,22.53,1.98,33.53.42,2.19-.95,3.38,2.02,1.46,2.54,13.05,5.89,19.43,17,26.99,18.02,12.26,40.89,11.06,61.99,11.01.07,2.92-8.12.28-4.99,3.99-4.16,1.13-9.76,2.35-14,3-1.01-1.6-3.86-1.15-5.48-1-5.01.46-8.92.85-14.07,1-1.92.06-4.01-1.01-3.45,2-2.32.15-6.31,1-7.5,1h-17c-.26,0-2.55-3.02-4.49-2,.27,4.38-3.21,7.15-5.01,10,.19-3.44-.51-1.6-2.1-.6-21.42,13.41-39.14,18.03-63.89,10.1-3.25-1.04-6.4-4.98-10-2.5-4.29-4.68-8.2-10.86-10-17,1.65-5.66-.6-10.95.26-17.24.46-3.4,1.72-8.34,4.86-10.14,6.83-2.12,12.82-7.39,19.35-9.65,8.05-2.79,15.11-1.87,22.63-3.41,2.84-.58,3.21-2.54,3.56-2.58,5.63-.64,13.25,4.65,18.34,6.03,1.57.42,8.87,1.78,8.97-.49-1.11-2.02-2.56-3.72-3.98-5.5-5-6.32-12.07-10.91-19.86-13.13-1.38-2.13,3.24-15.39-.13-18.87.02-.33-.02-.67,0-1,3.88.91,1.18-5.17,1.99-6l23,1.01Z"/>
    <path class="cls-15" d="M433.33,109.98c-.1.3.1.7,0,1l-1,1c-.1.3.1.7,0,1l-3,5c-9.6,9.04-18.99,21.55-34,22-7.58.22-26.59-6.1-35.79-7.71-8.7-1.52-20.63-3.6-29.21-4.29-.23-.38-.85-.69-1-1-12.72-26.92-13.37-29.2-4-57.99.1-.3-.09-.7,0-1,2.92-1.66,3.77-6.26,5-8,2.95-4.17,4.64-4.47,8-7,22.91-17.24,51.76-23.21,77.32-6.82,24.44,15.67,26.15,38.2,17.67,63.81ZM383.34,55.99c-10.98-.03-22,.01-32.99,0l-2.01,17.99h29l-9,10c-5.82,5.11-13.13,11.12-18,17-8.29,5.08-9.64,12.12-9.07,21.45l3.07.54-1.01,1.99c14.47.44,29.07-.55,43.54-.03,2.99.11,5.65,1.04,8.97,1.07,1.9.02,4.06.89,3.49-2.03,1,.01,2-.02,3,0,.11,0,.71,1.14,1.39.96,1.14-.54,1.41-1.3,1.61-2.47.43-2.54,1.14-10.44,1.11-13.04-.02-2.05-.31-2.02-1.11-3.45-.18-.31-.68-.81-1-1-3.29-1.98-2.83-.04-4,0-3.65.13-7.35-.05-11,0l-.51-2h-1.48s0,2,0,2c-.67,0-1.33.01-2,0l-.02-1.32-2.98-3.68c7.14-7.34,14.33-14.67,21.47-22.03,2.33-2.41,2.54-1.71,4.53-4.97.17-.28,2.3-.79,1.95-2.52l1.05-14.48c-2.99-.04-6.01.07-9,0-2.66-.06-5.34.02-8,0-3.33-.02-6.67,0-10,0-.33,0-.67,0-1,0Z"/>
    <path class="cls-23" d="M471.33,949.79c2.9-1.12,3.24-6.46.03-6.02v-1.95s1.99-.6,1.99-.6l-.62-3.44,4.55-2.06c-2.29-6.64,3.05-10.52,5.79-15.68,1.02-1.91.69-4.17,1.29-5.47.66-1.43,3.91-1.55,2.97-4.78.15-.06.66-1.31,1.72-1.75,32.08-13.31,86.87-21.85,104.15,17.36,4.28,9.72,9.01,26.46-4.62,30.13-28.76,7.75-88.52,3.23-117.24-5.76Z"/>
    <path class="cls-24" d="M331.35,530.89c-.56,3.03,1.53,1.92,3.45,2,11.05.46,23.38,7.1,34.55,10.99,1.88.66,3.59,2.14,5.91,2.09l-9.91,52.9c-1.55,8.34-4.34,19.44-4.55,28-.04,1.82-.32,2.85,1.55,3.99-1.42,15.27-2.98,30.65-2.99,45.99-7.18.45-14.32-1.92-21.53-1.03-3.46.43-4.23,2.26-6.21,2.78-4.49,1.19-23.58-2.15-29.28-3.23-7.75-1.47-15.2-3.93-22.88-5.62.54-9.51.25-19.44.9-28.9l51.48,4.01,16.76-14.26c2.12-15.61,2.66-31.52,4.88-47.11.8-5.62,6.99-27.03,3.9-30.15-2.37-2.39-13.75-2.32-17.41-2.61-2.16-.62.17-4.81-3.28-5.82-.89-.22-1.21.92-1.34.95-2.56.72-6.91.09-7.81,1.26-.95,1.24,1.2,3.92-2.18,1.73-.32,3.57,1.17,4.1,3.99,5.01,6.12,1.98,14.12.95,20.49,2,1.11.18,1.97.41,2.39,1.58l-9.1,72.69c-.28.66-9.81,9.06-10.76,9.32-2.76.76-6.85-1.45-10.02-.6l1-25,8.05-1.66c.14-14.02,3.01-27.92,3.97-41.83.22-3.19-3.67-.6-5.51-.7-2.98-.15-6.22-1.47-9.51-.8.16-5.08-.3-30.18,2.25-32.75,1.05-1.05,4.14-.92,4.75-3.24,1.44-.79,2.89-1.38,4-2Z"/>
    <path class="cls-23" d="M326.35,897.81l-.41,4.08c4.4.17,4.27,3.75,5.8,5.54,9.98,11.63,13.4,17.11,16.77,31.68.36,1.56,3.69,2.91,2.84,5.7-31.42,1.97-64,4.66-95.53,3.04-5.5-.28-16.54-1.09-21.53-2.47-9.29-2.58-10.83-6.9-9.67-15.81,5.63-43.35,53.84-49.89,88.52-38.03,4.4,1.51,9.41,5.06,13.21,6.28Z"/>
    <path class="cls-1" d="M383.34,260.94c6.19-7.35,5.82-2.88,11.32-3.98.78-.15.22-1.85,2.11-2.1,12.74-1.69,24.88,2.28,36.56,2.08,6.95,2.02,15.28,1.24,22.37,2.13,4.98.62,19.37,3.35,23.16,5.83,5.46,3.58.22,17.52,3.46,23.03-.06.66.07,1.35,0,2-2.85-1.85-1.77-.86-1.99,1.5-.41,4.42-.51,9.12-1.01,13.5-.04.33.04.67,0,1-1.35,1.86-3.03,6.36-1,8-1.2,4.74-2.65,7.52-6,11-13.06,13.55-35.36,11.55-52.52,9.99-1.62-.15-4.47-.59-5.48,1.01-10.34-1.96-21.21-5.58-28-14-6.26-18.99-8.91-41.65-3-60.99ZM411.34,287.94c-.15-.01-.52-.89-.98-1.01.09,9.14-1.36,15.82,2.98,24.01,1.12,2.11,4.46,7.32,6,9,7.62,8.32,14.78,5.82,22-1,.34-.32.69-.66,1-1,8.75-9.67,9.54-19.9,7.97-32.48-.28-2.26.97-3.42-1.97-1.51-5.15-30.45-33.87-22.75-36.01,3.49-.15.5-.53.55-.99.51Z"/>
    <path class="cls-12" d="M257.35,156.97c6.8,1.67,16.19,1.67,23,0,10.11.57,20.22,2.63,30.18,4.31l27.81,7.67c-26.13.76-60.89,3.17-82.89,18.6-6.67,4.67-11.87,8.56-.04,10.97l-3.06,31.43c-18.01-1.95-65.17-16.26-68.74-36.73-2.3-13.18,8.48-18.4,18.76-23.26,1.06,2.18,3.04.35,4.3-.2,13.34-5.78,26.49-8.24,40.7-10.8,3.67-.66,5.24-1.73,10-2Z"/>
    <path class="cls-25" d="M332.34,212.95c18.2,1.28,37.36,3.31,55.45,4.04,2.99.12,8.15,1.1,9.55-2.04-3.74,5-6.83,12.99-5.84,19.34,1.1,3.38,10.08-.58,12.84-1.35,7.73-1.33,17-.65,24-4,.66.02,1.34-.04,2,0-1.98,3.06-.59,1.57,1.52,1.96,7.08,1.33,14.39,1.78,21.48,3.03,4.05,1.55,8.14,3.5,12.02,5.48,6.73,3.44,8.35,9.08,8.98-2.48,1.08,1.51,1.64,2.33,3.53,2.97,6.7,2.25,20.85,4.64,28.23,5.76,9.62,1.47,19.51,2.4,29.23,2.27-.9,4.81-.73,11.21-2,16.26-.44,1.21-2.36,1.54-3.46,1.55-8.7.05-19.29-3.75-28.4-2.95-1.32-8.07-7.07-10.93-14.13-13.37-13.01-4.48-28.45-5.59-42-6.49.56-3.03-1.53-1.92-3.45-2-11.61-.46-25.52-.61-37.08-.04-12.17.59-20.11.66-29.46,9.04-.41.37-1.68,1.63-2,2-2.07,2.4-3.59,3.62-4.62,7.07-8.11-1.33-14.87-1.43-22.95-.09-1.88.31-4-1.13-3.43,2.02-2.1-.29-4.35-9.2-6.56-11.94-.95-1.18-5.28-5.23-6.44-6.06-5.86-4.18-28.22-6.46-36.5-6.99-8.73-.56-17.73.4-26.49-.02,1.73-5.97.97-12.78,2-18.99,2-.09,3.57-2.92,5-1-1,1.06-2.85,15.01-1.99,15.99,4.43-1.98,7.68-5.19,12.32-7.17,3.15-1.34,6.27-2.34,9.68-2.82,2.47,2.06,6.38.61,9.42,1.08s11,2.33,13.78,3.22c4,1.28,11.36,6.17,14.8,6.7.63.1,1.35-.06,2,0,3.29-1.43-.82-16.63-1-20Z"/>
    <path class="cls-4" d="M282.35,381.92c5.98,3.41,10.09,9.27,15.66,12.83,28.09,17.96,71.6,6.1,87.99-22.67,13.19-.82,26.65-1.27,39.71-3.28,4.14-.64,27.08-6.75,28.5-5.77,7.23,18.45-4.38,38.48-24.53,39.82-5.84.39-13.82-2.74-19.61-1.71-6.61,1.17-12.33,8.74-18.05,11.96-10.46,5.88-26.36,6.98-38.18,5.8-4.98-.5-12.84-5.03-15.88-4.7-2.39.26-7.69,3.89-11.36,4.47-10.25,1.62-21.14-1.99-29.17-8.35-4.82-3.82-7.18-9.01-11.09-13.41-1.59-1.79-2.27-1.57-4.02-2.71l.02-12.28Z"/>
    <path class="cls-5" d="M224.36,150.97c1.27,1.25,2.95.31,4.38-.06,34.79-9.11,96.55-5.59,133.85,1.31,48.2,8.91,119.52,35.67,159.73,62.74,4.15,2.79,7.85,7.17,12.92,8.09l.07,2.91c-1.7-.27-3.26-.81-4.99-1l-3.47-1.99-28.53-3.01c-4.36-.92-9.83-1.91-14-3,.61-2.96-1.48-1.75-3.18-2.27-7.59-2.28-15.01-5.28-22.81-6.73-5.11-1.93-9.98-3.83-15-6,2.47-.9-.96-1.52-1.67-1.82-13.64-5.8-25.42-13.35-39.33-18.17-4.58-1.59-5.24-1.48-10-4-3.2-1.7-3.64-1.82-7-3-.3-.1-.7.11-1,0-2.76-2.81-7.29-4.19-11.04-5.45-1.44-.48-4.84-2.16-5.96-.55-19.92-6.78-39.58-11.92-59.99-17-6.45-1.6-5.62-.8-11-1-.66-.03-1.33.03-2,0v-2c-4.11.51-9.61-1.21-13,1-15.35-.02-28.03.37-43.18,3.32-11.06,2.15-21.95,5.31-32.33,9.68l-1.47-1.98c5.74-3.49,12.14-5.55,18.16-8.14.99-.43,1.42-1.72,1.83-1.88Z"/>
    <path class="cls-6" d="M371.34,897.81l-2.13-29.37c-.28-.79-3.21-2.5-3.87-2.63.41-.14.93-1.01,1-1,.41.04,1.75,1.4,1.99,1-.12-12.85-1.66-25.58-.95-38.53l-3.04-44.45c4.44,1.5,31.61,7.55,32.53,8.96l.47,1.53,2.84,106.84-2.34,1.68c-8.81-1.56-17.7-2.51-26.51-4.03Z"/>
    <path class="cls-29" d="M530.32,681.85c-1.67,7.44-1.23,16.31-1,23.99.04,1.32.03,2.67-.01,3.99l-27.4,3.69-9.1-8.66,5.51,8.97c-15.61,1.73-31.31,3.05-46.99,4.01,1.95-3.44-1.26-25.49-2.5-26-1.91.04-2.5-.79-2.53,1.52-.13,8.11.67,16.48,2.04,24.49-8.84.51-17.53.9-26.54.98-6.5.05-12.64,1.56-19.45.02v-25.49c0-.31-1.38-1.41-1-2.49,43.05.69,86.55-1.85,128.98-9Z"/>
    <path class="cls-28" d="M268.35,215.95c.52-2.77.88-7.09,3.99-7.02l-.08-1.92-1.96-.62,3.03-13.96c24.49-9.06,52.49-12.13,78.55-10.52,15.83.98,35.31,6.79,49.85,13.15,4.46,1.95,7.82,6.33,13.61,5.9.56,2.8-1.04,1.94-3.02,2.01.11.48,1,.82,1.02.98.13.97-12.24,5.98-16,11-1.39,3.14-6.56,2.16-9.55,2.04-18.08-.73-37.25-2.76-55.45-4.04-.32-.02-.9-.8-1.52-.72l-.48.72c-8.32-20.87-35.94-26.2-49.82-7.33-1.71,2.33-4.75,9.94-5.2,10.31-.34.28-1.76-.2-1.97.02-1.42-1.92-3,.91-5,1,.05-.32-.06-.68,0-1Z"/>
    <path class="cls-23" d="M581.89,262.36c2.35,2.15,15.73,15.52,14.37,17.49-11.26,5.84-22.08,17.4-27.82,28.7-4.61,9.07-5.98,23.96-18.1,25.98-6.61,1.1-12.15-6.33-12.93-12.19-1.25-9.39,3.5-20.49,4.78-30.04,1.37-10.27.2-20.81,1.14-30.85.28-2.97,3.41-20.08,4.5-21.5,1.65-2.14,6.74,1.93,8.8,3.17,8.09,4.89,18.26,12.83,25.25,19.23Z"/>
    <path class="cls-10" d="M610.31,154.97c-11.98-19.22-31.48-42.31-46.99-58.99-55.9-60.09-126.82-88.73-209.28-69.96-.43.1-3.14,2.64-7.36,2.9-8.02.5-10.31.45-18.33,4.07,52.85-30.94,116.8-26.59,169.65,1.83,47.79,25.7,93.67,68.29,112.31,120.15Z"/>
    <path class="cls-24" d="M549.32,865.81l6,21c-26.46-3.13-53.34,4.18-77.51,13.98-4.18,1.7-21.04,10.79-23.81,9.91-4.07-1.29-7.98-31.63-6.07-33,2.39-1.72,15.24-3.22,19.04-3.75,26.35-3.64,53.05-4.3,79.35-7.14.28-.03.75-.97,1-1,.65-.07,1.34.05,2,0Z"/>
    <path class="cls-29" d="M298.35,506.89c2.27-1.76,5.78-6.1,8.99-5.51-24.13,49.85-36.66,104.99-38.51,160.45-13.4,13.63-32.47,20.02-51.47,20.01,8.36-10.23,15.67-24.88,18-37.98,3.9.24,9.29-.92,12.7-2.79,19.71-10.8,14.57-28.68,18.3-46.51.17-.82,1.8-.71,2.3-1.9.71-1.68,2.92-11.3,2.41-12.55-.18-.45-1.57-.84-1.72-1.24-.1-.25-.09-1.67,0-2,.34-1.22,2.4-2.77,3.2-4.3,3.28-6.3,5.27-13.5,8-19.02.77-1.56,2.43-1.49,2.65-1.8.12-.17-.95-2.44-.67-4.08,1.38-8.22,5.64-15.18,6.46-23.48.08-.83-.73-2.22-.63-2.29.33-.22,1.97.38,2.73-.23.94-.76,4.7-12.87,7.27-14.78Z"/>
    <path class="cls-1" d="M309.35,250.95c4.79-.45,4.01,1.98,4.58,2,.79.03,2-.95,2.92-.83,14.62,1.83,11.85,18.88,11.49,29.82-3.02-.56-1.93,1.53-2,3.45-.16,4.61.32,9-1.01,13.54l-.99-4.99c1.42-11.94-1.73-34.16-17.51-34.08-8.18.04-15.57,10.07-16.51,17.57-.2.48-.5.56-.98.51-.15-.02-.53-.88-.98-1.01-1.13,6.43-1.28,12.98-1.02,19.52.1,2.46-.7,3.26,2,1.48.78,5.21,1.22,8.56,3.92,13.39-4.87,3.36-9.24,6.94-12.92,11.6-2.02-1.9-1.54,3.67-4.49,4.07-5.04.69-4.64-1.98-4.94-1.96-4.01.23-7.2,1.95-11.57-1.11.06-.29-.02-.66,0-1,.32-5.96.59-12.04,1-18l1.99,1c.22-3.48-.27-7.05-.03-10.53.09-1.29,1.04-2.62,1.04-2.96v-18c0-2.05.66-14.36,1.01-15.84.11-.48,2.94-.95.99-5.66,2.16-.55,4.76-.88,7-1,12.43-.67,24.64.15,37-1Z"/>
    <path class="cls-24" d="M291.35,570.88c12.36,4.02,26,3.47,39,4-1.82,10.45-1.23,22.17-3.02,32.48-.86,4.95-5.13-.63-6.84,3.17l-2.15,28.35-36.99-4c1.88-22.62,4.92-41.94,10-63.99ZM315.97,588.94c-2.27.66-2,5.15-1.12,6.93,2.19,4.44,10.81,1.43,8.04-4.02-.75-1.47-5.4-3.35-6.91-2.91Z"/>
    <path class="cls-13" d="M349.34,684.85c11.83,1.26,20.35-.52,31.54-.05,3.85.16,7.5,1.46,11.41,1.1l1.9,38.8c-3.96,2.53-7.72.25-11.37.15-12.42-.32-26.66-.31-38.9-2.1-2.55-.37-5.55-1.31-6.59-3.91,2.62-3.93-.17-31.82.99-33l11-.99Z"/>
    <path class="cls-23" d="M402.23,955.69c-13.94,3.56-28.7,4.73-42.9,4.59-4.5-7.87-9.16-5.65-15.35-1.35-2.92,2.03-1.72,3.87-7.24,4.76-19.04,3.08-44.57,2.63-63.86,2.05-9.99-.3-40.95-.59-48.1-6.9-2.05-1.81-2.37-9.33.14-9.94,1.13-.27,18.87,3.67,22.88,3.92,35.78,2.26,74.43.82,110.01-3.06,13.58-1.48,27.19-4.75,40.88-5.69,5.41.56,3.43,7.86,3.52,11.6Z"/>
    <path class="cls-24" d="M519.32,461.9c4.17-2.79,7.94-6.05,11.99-9,1.56,7.29,6.23,14.1,4.84,21.83-9.94,4.91-18.47,12.48-26.84,19.64-6.87,5.88-14.97,13.22-21.51,19.48-3.62,3.47-16.08,18.43-18.5,19.54-2.13.97-3.51.24-5.52-.47-8.92-3.15-20.58-12.09-29.62-14.36-3.04-.76-5.72-.86-8.82-.68,8.94-5.39,8.84-3.2,18.05-5.45,13.22-3.24,27.97-10.08,39.95-16.55,6.95-3.75,13.96-7.38,20.01-12.48,6.26-5.27,11.32-12.27,17.26-17.84l-1.28-3.67Z"/>
    <path class="cls-24" d="M355.34,864.81c.97,2.15-1.57,4.49-1.62,5.53-.05.97,1.62,2.83,1.66,4.95.11,6.19-.73,12.42-.02,18.51l1.97-2.98c-.7,2.19,6.48,4.54,7.01,3.99-1.06-2.34,1.88-3.22,1.87-3.44-.04-1.63-1.52-4.93-1.74-7.17-.47-4.86-.18-9.82-1.35-14.65l-1.19-1.81c-1.59-.43-3.1-1.34-4.58-1.91,2.46.31,5.71-.44,8,0,.66.13,3.59,1.84,3.87,2.63l2.13,29.37c-28.85-4.97-52.65-17.32-80.59-22.9-2.17-.43-4.57.26-6.68-.14-5.78-1.09-1.38-20.54,4.76-21.98l66.5,12.03Z"/>
    <path class="cls-4" d="M328.35,897.81l.5.98.5-.98c11.75,3.63,23.43,7.81,35.61,9.88,4.89.83,32.08,2.59,33.46,4.79,2.11,4.06,3.39,23.5.26,25.41l-47.33,6.91c.85-2.79-2.48-4.15-2.84-5.7-3.37-14.57-6.79-20.04-16.77-31.68-1.54-1.79-1.4-5.37-5.8-5.54l.41-4.08c.51.16,1.38-.11,2,0Z"/>
    <path class="cls-10" d="M224.36,150.97c81.2-32.51,202.72,1.18,273.88,46.57,8.3,5.3,16.64,11.22,24.08,17.41-40.21-27.06-111.53-53.82-159.73-62.74-37.3-6.9-99.06-10.42-133.85-1.31-1.43.37-3.11,1.3-4.38.06Z"/>
    <path class="cls-24" d="M571.32,517.89c6.4-1.45,7.45.1,12.47,4.03,12.02,9.41,22.08,22.43,34.24,31.82l21.28-10.85c4.6,5.45,8.32,11.9,12,18-.77,1.42-1.54,1.87-2.97,2.52-4.67,2.14-29.55,13.41-32.44,12.56-1.02-.54-.52-2.19-1.2-2.97-7.92-8.99-16.85-17.21-24.9-26.1-6.81-7.52-11.66-19.89-21.1-3.93-3.79-.92-7.49-1.69-11.38-2.08.68-7.8,6.66-14.16,8.87-21.41.16-.22,4.26-1.39,5.12-1.58Z"/>
    <path class="cls-24" d="M269.35,578.87c.15.39,1.54.79,1.72,1.24.51,1.25-1.7,10.87-2.41,12.55-.5,1.19-2.13,1.08-2.3,1.9-3.73,17.83,1.4,35.71-18.3,46.51-3.42,1.87-8.8,3.04-12.7,2.79,3.35-18.87,2.45-45.07-9.98-60.5,10.67,3.8,22.61,6.89,30.49,15.49-1.72-10.01-10.79-16.05-18.49-21.47-.02-.73,6.02-7.19,6.98-8.5,7.57,3.16,16.44,16.31,25,10Z"/>
    <path class="cls-24" d="M226.36,644.86c-9.49-.34-18.86-1.49-28-4,8.78-15.9-3.61-46.27-6.01-63.49-.58-2.45,2.85-1.55,4.38-1.37,20.14,2.42,24.67,8.58,29.34,27.65,3.36,13.74,3.33,27.51.28,41.21Z"/>
    <path class="cls-6" d="M226.36,644.86c-3.15,14.16-11.8,36.98-28.6,38.88-10.42,1.18-23.02-3.02-32.38-7.38,4.17-2.8,8.99-6.93,11.99-11,2.68-3.64,4.69-9.51,7.45-12.54,3.64-4,10.35-6.17,13.54-11.95,9.13,2.51,18.51,3.66,28,4Z"/>
    <path class="cls-23" d="M479.33,958.79c39.18,6.96,80.9,7.57,119.98,0,1.82,10.62-3.11,11.34-11.78,13.71-22.9,6.28-87.22,6.83-108.77-2.65-2.22-.98-3.21-2.98-3.43-3.06,1.35-3.75.29-5.57,4-8Z"/>
    <path class="cls-26" d="M327.35,532.88c-.61,2.32-3.71,2.19-4.75,3.24-2.55,2.57-2.1,27.68-2.25,32.75,3.28-.67,6.52.65,9.51.8,1.85.09,5.74-2.5,5.51.7-.96,13.92-3.83,27.82-3.97,41.83l-8.05,1.66-1,25c3.17-.85,7.26,1.36,10.02.6.95-.26,10.48-8.66,10.76-9.32l9.1-72.69c-.42-1.17-1.27-1.39-2.39-1.58-6.37-1.05-14.37-.02-20.49-2l1-2.51,5,1.5c.85-1.53-.06-3.26.05-4.36.02-.2,5.28-2.26-.04-2.63.13-.04.44-1.18,1.34-.95,3.44,1.01,1.12,5.19,3.28,5.82,3.66.29,15.04.22,17.41,2.61,3.09,3.12-3.1,24.53-3.9,30.15-2.22,15.58-2.76,31.5-4.88,47.11l-16.76,14.26-51.48-4.01c.16-2.27.85-4.16,1-6l36.99,4,2.15-28.35c1.71-3.8,5.98,1.79,6.84-3.17,1.79-10.31,1.2-22.02,3.02-32.48-13-.53-26.64.02-39-4,.26-1.12.78-2.1,1-3,7.28,3.09,15.41-.42,22.99,1.01l4-31c1.09-.48,5.83-3.81,8-5Z"/>
    <path class="cls-29" d="M539.32,597.87c2.26-.51,2.1,1.27,2.97,2.48,2.31,3.2,13.58,17.83,14,20.04,1.42,7.36-2.2,25.49-2.97,33.98-.28,3.11.83,14.01-1.71,15.52-6.65,1.92-13.52,2.7-20.3,3.97l-1.99-5.01,1.98,1.01c1.26-21.48,3.71-42.94,6.13-64.36.26-2.32,1.76-6.11,1.87-7.63Z"/>
    <path class="cls-6" d="M541.32,826.82c2.97-.84,19.28-7.74,21-6,1.38,14.18,2.83,30.41,6.28,44.22,2.21,8.85,7.92,17.1,6.72,26.77-6.34-1.26-13.65-4.24-19.99-5l-6-21,16.99-2.99c-6.4.55-12.64-.89-18.99-1.01l-6-34.99Z"/>
    <path class="cls-24" d="M649.16,672.99l3.15,23.86c-19.35-1.04-37.62,1.01-55.99,7-.99-6.91-3.19-13.99-1.52-21.01,3.12-6.24,46.16-11.1,54.37-9.84Z"/>
    <path class="cls-24" d="M584.31,493.89v1c-3.41-.43-5.37-1.09-9,1,.7-.89,1.86-3.98,3.58-4.92,2.28.06,3.73,1.85,5.42,2.92Z"/>
    <path class="cls-24" d="M586.31,494.89c10.74,3.04,39.88,29.29,46.56,38.93,1.21,1.74,1.79,2.85,1.43,5.06-4.14,2.86-13.13,8.12-17.93,6.49l-33.59-31.46c-2.31-1.98-6.44-4.03-9.47-4.03l5.33-8.61c2.18-2.27,6.65-2.66,5.67-6.39.65.08,1.48-.15,2,0Z"/>
    <path class="cls-28" d="M560.32,396.91c-15.48,38.52-46.99,59.96-83.99,75.98l-7.22,1.28c-13.27,5.65-27.03,9.85-40.78,13.71,35.48-18.05,70.96-33.59,101-60.47,9.67-8.65,17.45-19.28,26.97-28.03,1.23-1.13,2.06-2.5,4.01-2.48Z"/>
    <path class="cls-6" d="M698.3,673.85h1c1.46,5.46,6.46,30.04,3.02,33.52-1.02,1.03-3.07,1.33-4.51,1.49-9.6,1.11-21.27.37-31.07,1.04l-2.46-.56c-.74-.45-1.69-2.56-1.99-3.5l5.57-.93-3.57-31.05h33.99ZM686.98,682.01c-5.55.47-3.47,9.23-3.54,13.19,10.08,8.34,9.06-13.66,3.54-13.19Z"/>
    <path class="cls-24" d="M298.35,506.89c-2.57,1.92-6.33,14.02-7.27,14.78-.75.61-2.4,0-2.73.23-.1.07.72,1.46.63,2.29-.82,8.31-5.07,15.26-6.46,23.48-.27,1.64.79,3.91.67,4.08-.22.31-1.88.24-2.65,1.8-2.73,5.52-4.71,12.72-8,19.02-.8,1.53-2.86,3.08-3.2,4.3-1.94-.57-4.1-.75-5.98-1.51-2.46-.99-10.08-6.88-12.17-8.84-1.25-1.17-2.56-.73-1.84-3.64,15.81-22.38,26.64-38.69,48.99-55.99Z"/>
    <path class="cls-6" d="M377.34,537.87c-1.96.42-2.69-.45-4.05-1.44-6.27-4.59-18.46-24.04-24.62-24.29l-36.31,17.74c-.42-3.59.99-6.94,1.09-10.49.08-2.74-1.31-5.27-.92-7.74.43-2.7,7.44-18.86,10.14-18.6,2.25.22,11.87,6.26,15.42,7.6,7.43,2.81,15.32,3.66,22.81,6.18l16.44,31.04Z"/>
    <path class="cls-6" d="M475.33,485.89c3.7,0,2.8,2.56,6.81,2.16l1.19,7.84c-11.97,6.47-26.72,13.31-39.95,16.55-9.21,2.25-9.11.06-18.05,5.45-2.74,1.65-21.72,13.29-22.99,11.99-.02-.78-.11-1.58.15-2.34,1.59-4.7,22.98-21.37,26.92-27.07,14.07-2.42,29.45-11.28,42.69-14.34,1.13-.26,2.1-.23,3.23-.23Z"/>
    <path class="cls-17" d="M186.36,637.86c-.3.55.11,1.72-.96,2.53-.69.52-1.63.27-2.04.47-9.76,4.94-21.24,6.83-32.5,9.01l.5.99c-18.92,4.37-37.92,9.31-56.99,13-6.95-2.14-14.82,2.81-22.47.98l-6.52-3.98c-6.39-7.33-1.22-6.64,1-12,3.62.43,2.26,4.21,6.28,6.21,9.19,4.56,25.53-2.05,35.53-3.9,14.4-2.66,29.07-4.45,43.38-7.61,12.16-2.69,25.73-5.2,36.3-11.69,1.1,1.26-.84,4.75-1.51,5.99Z"/>
    <path class="cls-29" d="M528.32,717.84c7.31-1.15,14.6-3.19,21.99-3.99v34.99s-.97.5-.97.5l.98.5c0,1,0,2,0,3-2.29,7.1-.39,15.57-1,23-3.55,1.35-7.14,2.75-10.99,3l-2.17-31.33c-.63-1.89-4.15-2.62-5.55-3.98-.46-.45-.16-1.54-.29-1.68-.25-1.97.45-4.5,0-6.32-.2-.79-1.99-.65-2.01-1.25-.05-1.13,1.23-3,1.12-4.92-.22-3.75-1.8-7.5-1.1-11.5Z"/>
    <path class="cls-23" d="M286.35,396.91c-14.53.74-32.95-6.65-36.55-21.95-.72-3.06-3.36-19.75,1.89-18.95.92.14,7.38,5.18,10.85,6.21,3.88,1.16,8.66,1.41,12.71,1.79l6.08,15.43-1.98,1.45c1.19-.14,2.03.46,2.99,1.01l-.02,12.28c1.76,1.15,2.43.93,4.02,2.71Z"/>
    <path class="cls-7" d="M596.31,770.83c-.34,4.72,4.03,18.61,2.53,21.96-2.63,5.85-23.93,12.57-30.51,14.03-.06-4.85.38-10.57-1.31-15.19-1.32-3.61-4.94-5.22-5.7-8.79l34.99-12.01Z"/>
    <path class="cls-28" d="M491.33,229.95c.33.05.67-.05,1,0-.37,3.3.67,1.19,2.28,1.4,6.38.86,12.58,2.78,19.1,2.72l2.6,2.87c-.48-2.83,2.28-2.13,4.53-2.03,5.46.24,12.35,1.29,17.49,3.04-.3,3.37-2.48,7.22-3,10-9.72.13-19.6-.8-29.23-2.27-7.38-1.13-21.54-3.51-28.23-5.76-1.89-.63-2.45-1.46-3.53-2.97.05-.98.05-2.02,0-3,1.62-.54,1.41-3.16,0-4-.09-.48-1.58-2.67-2-4,6.39,1.22,12.54,2.99,19,4Z"/>
    <path class="cls-26" d="M557.32,540.88c3.89.38,7.6,1.15,11.38,2.08,9.44-15.96,14.29-3.58,21.1,3.93,8.05,8.88,16.98,17.1,24.9,26.1.68.77.18,2.43,1.2,2.97,2.89.85,27.77-10.42,32.44-12.56,1.42-.65,2.19-1.1,2.97-2.52,1.65,2.73,2.21,5.61,3,7-7.96,3.11-31.78,16.04-39.29,13.79-3.38-1.01-6.8-9.76-9.18-12.82-2.01-2.58-15.28-15.58-17.57-16.51l-1.95-.07c-5.14,3.23-8.48,4.92-13.96,1.08-1.9-1.33-2.42-3.54-4.31-4.78-3.93-2.58-9.65-2.57-14.12-3.69l.4-3.99c.99.05,2.02-.1,3,0ZM574.56,542.13c-4.62,4.63,3.03,11.14,6.84,6.35,3.86-4.84-2.83-10.36-6.84-6.35Z"/>
    <path class="cls-5" d="M552.32,813.82l-27.99,8.99c.34-10.22.89-21.91-10-26.5-.51-.91,2.58-3.31,2.8-3.39,8.18-3.02,19.1-3.64,26.7-5.98,1.58-.49,3.34-3.38,6.34-2.93,1.61,3.32,6.45,6.39,7.88,9.57,1.24,2.74,3.07,16.16,1.26,18.23l-1-9-31.31,7.19c-3.12,1.15-1.2,8.06-1.68,10.81,9.02-2.39,17.85-5.03,26.99-6.99Z"/>
    <path class="cls-24" d="M319.35,537.88l-4,31c-7.58-1.43-15.72,2.08-22.99-1.01,3.69-15.46,7.79-30.68,12.01-45.98,1.35-.3,1.72,3.04,1.72,3.76.02,2.98-1.27,5.18-.53,8.52,1.62,7.3,8.56,6.02,13.8,3.71Z"/>
    <path class="cls-19" d="M50.38,593.87c-.2,2.67-.15,5.29-1.18,7.82-6.08.28-14.19,5.53-17.82,10.18l-12-10c.52-7.54,5.4-16,11-21l9.76-3.82c10.58-1.24,7.4,10.33,10.23,16.81Z"/>
    <path class="cls-5" d="M65.38,372.92c.65,3.64-5.65,1.66-6.99,3.49,2.25,2.05,5.78,1.67,6.01,5.5l1.98-2.99.92,4.58-1.91.91c.72.6,1.46,1.37,1.71,2.29,2.02,7.5,3.61,16.49,4.29,24.21l5,1c-2.76.69-20.13,4.8-20.98,3.98l-8.95-37.35c.46-1.53,16.42-5.48,18.93-5.63Z"/>
    <path class="cls-21" d="M356.34,779.83c1.94.95,1.89,1.4,2.07,3.4,2.35,26.08,2.67,52.45,3.92,78.58h-4.99c-1.65-.53-1.88-.96-2-1l-2-5.49c.94-24.08-3.31-47.96-3.02-72.01.02-1.69-.64-4.44,1.02-5.48.51.27,3.69,1.43,5,2Z"/>
    <path class="cls-19" d="M37.38,554.88c-.15.27-1.35.7-1.84,1.62-2.01,3.84-4.09,7.59-6.16,11.37-2.62,1.89-6.73,5.65-9,8-1.84-.17-3.1-.77-4.42-2.07-2.14-2.11-2.38-6.79-5.57-6.93-.39-11.35,3.36-29.31,18.44-26.94,5.75.9,11.45,9.72,8.56,14.94Z"/>
    <path class="cls-29" d="M303.3,682.9l.05,27.95-22.83-5.17c-1.83-9.15-1-18.53-1.15-27.83l23.94,5.05Z"/>
    <path class="cls-29" d="M600.31,669.86c-.88.24-2.22,1.79-3.68,1.87l-1.82-.86c-5.26-16.75-11.61-33.69-22.11-47.89-6.64-8.98-18-21.17-27.39-27.1-.96-3.51,4.12-1.11,5.21-.71,31.22,11.57,40.82,45.79,49.78,74.69Z"/>
    <path class="cls-4" d="M487.33,909.8c.94,3.23-2.31,3.35-2.97,4.78-.6,1.3-.27,3.55-1.29,5.47-2.74,5.16-8.07,9.04-5.79,15.68l-4.55,2.06.62,3.44-1.99.6v1.95c3.2-.44,2.87,4.9-.04,6.02-3.07-.96-12.88-3.86-13.83-6.66-1.84-5.38,1.27-15.78.97-21.7l21.89-8.29,2.98-2.34.51.98.49-.98c1.17-.47,2.24-.69,3-1Z"/>
    <path class="cls-6" d="M530.32,681.85c7.03-1.19,13.88-3.25,20.99-4,.06,3.99.09,25.96-1.97,27.52l-17.58,3.53-2.44-3.05c-.23-7.69-.67-16.55,1-23.99Z"/>
    <path class="cls-21" d="M329.35,686.85v26.99c-7.06.37-14.04-1.02-21-2v-27.99l21,3Z"/>
    <path class="cls-19" d="M258.35,324.93c-11.23-3.92-15.52-7.36-17.74-19.75-2.75-15.31-.7-32.09.78-47.46,3.55-3.56,7.85-5.4,12.96-4.76l-1.99,2.99-2.08,1.43-1.93,54.55c-4.21-1.5-.73-6.88-1.03-8.45-.41-2.09-3.82-2.1-4.03.97s4.75,12.63,7.62,14.6c1.15.79,1.39-.16,1.46-.12,2.17,1.43,4.5,3.14,7,4-.02.34.06.71,0,1-.1.47-.54.85-1,1Z"/>
    <path class="cls-2" d="M607.31,807.83c15.1,7.13,22.49,1.91,34.49-7,1.93-1.44,2.8-1.85,2.5,1-.3.36-.66.68-1,1-.88.85-2.23.98-2,3-6.09,7.87-14.37,16.31-24.46,17.03-11.21.81-22.42-1.39-26.53-13.02l8.43-2.95,3.07,4.91c1.32-1.21,2.61-2.4,3.5-3.98.6.13,1.6-.19,2,0Z"/>
    <path class="cls-19" d="M55.38,613.87c4.27,2.79,5.77,9.05,5,14-.48.11-.93.53-1,1-.19,1.21.1,2.7,0,4-4.16,1.09-3.61,5.36-8,8l-.5-.98c-.79.33-1.08,1.67-1.5,1.98-.8.59-.59.81-2,1-6.06-2.86-9.56-3.16-10.82-10.75-.7-4.2,2.67-8.19,2.82-12.24.34-.33.65-.68,1-1,.62-.57,5.66-4.23,6.2-4.39,3.04-.86,6.33,1.85,8.8-.61Z"/>
    <path class="cls-21" d="M537.32,484.9c-.64,1.59-2.56,6.61-3.22,7.75-3.06,5.24-22.18,18.41-27.83,24.72-3.52,3.93-6.79,9.28-11.57,13.35-2.28,1.95-7.31,4.32-9.91,6.6-3.04,2.66-5.94,10.79-11.46,4.57,3.64-2.56,11.03-12.81,15.47-17.02,10.83-10.26,34.31-32.89,46.52-38.97.34-.17.64-.74,1-1h1Z"/>
    <path class="cls-24" d="M364.34,782.83l3.04,44.45c-.72,12.95.83,25.68.95,38.53-.24.4-1.58-.96-1.99-1-2.99-1.04-5.98-2.03-9-3h4.99c-1.25-26.13-1.57-52.5-3.92-78.58-.18-2-.14-2.45-2.07-3.4,2.22.97,5.64,2.2,8,3Z"/>
    <path class="cls-28" d="M372.34,368.92c-.82,1.29-.98,1.65-2,3l-1,1c-3.69,4.49-3.4,5.28-9,9l-7.52,3.03-2.46-2.03c1.22,4.47-9.04,5.66-12.52,5.98-7.95.73-16.78-.05-24.48-1.98-.31-.08-.69.09-1,0l-.5-.98-.5.98c-4.44-1.2-11.81-7.52-15-11,3.59-2.48,6.75,1.46,10,2.5,24.75,7.94,42.47,3.31,63.89-10.1,1.59-.99,2.29-2.84,2.1.6Z"/>
    <path class="cls-26" d="M573.31,509.89c3.03,0,7.16,2.05,9.47,4.03l33.59,31.46c4.8,1.63,13.79-3.63,17.93-6.49l2.93.54c1.32.67,1.39,2.65,2.07,3.46l-21.28,10.85c-12.16-9.38-22.23-22.41-34.24-31.82-5.02-3.93-6.07-5.48-12.47-4.03-1.93.5-3.47-.66-5-1l1-5c2.07-.12,3.11-2,6-2Z"/>
    <path class="cls-10" d="M407.33,505.89c1.28,1.43-5.21,8.44-6.6,9.89-4.75,4.99-11.37,9.58-15.9,15.08l-13.49-23.48,35.98-1.49Z"/>
    <path class="cls-29" d="M483.33,495.89l-1.19-7.84c-4.01.4-3.11-2.16-6.81-2.16.64-1.83,2.24-2.07,3.74-2.76,14.33-6.57,27.04-12.4,40.25-21.24l1.28,3.67c-5.95,5.56-11,12.57-17.26,17.84-6.06,5.1-13.06,8.73-20.01,12.48Z"/>
    <path class="cls-9" d="M649.31,317.93l-6.03-13.47c-16.57-11.15-41.87-17.16-57.97-2.53,9.43-13.8,32.08-22.81,47.33-12.83,8.13,5.32,15.71,19.24,16.67,28.83Z"/>
    <path class="cls-7" d="M129.34,666.89c.45.46,2.43,10.66,3.07,12.42,1.21,3.3,6.03,9.35,4.88,12.9-.7,2.14-10.69,3.8-13.29,4.57-5.77-7.98-4.26-18.86-7.63-27.91l12.97-1.98Z"/>
    <path class="cls-22" d="M95.37,416.92c-4,2.71,1.17,8.53-2.68,9.81s-11.13,1.49-15.54,2.45c-4.79,1.05-14.23,4.54-18.5,4.49-3.52-.05-4.33-6.72-8.26-6.77l44.99-9.97Z"/>
    <path class="cls-9" d="M355.34,321.93c-5.09-1.37-12.72-6.66-18.34-6.03-.35.04-.72,2-3.56,2.58-7.52,1.55-14.58.63-22.63,3.41-6.53,2.26-12.51,7.53-19.35,9.65-3.14,1.8-4.39,6.74-4.86,10.14-.86,6.28,1.39,11.58-.26,17.24-4.57-15.6,1-33.78,15.94-41.55,12.3-6.4,32.53-5.05,45.31-.21,2.59.98,6.16,2.34,7.74,4.76Z"/>
    <path class="cls-17" d="M14.4,448.91c1.7.22,1.95,3.76,2.32,5.16,5.08,19.79,12.96,51.47,14.84,71.2.15,1.58,1.45,2.26-.68,3.61l-3.46-3.52c-2.45-21.32-12.61-45.44-14.79-66.24-.44-4.16.6-6.38,1.78-10.21Z"/>
    <path class="cls-4" d="M579.31,409.92c-4.9,13.98-16.51,26.37-31.99,26.98,2.75-3.65,6.18-6.92,8.83-10.66,1.82-2.57,9.27-16.31,10.17-16.81,3.52-1.95,9.01,1.28,12.99.49Z"/>
    <path class="cls-13" d="M678.3,668.86c-.56,3.03,1.53,1.92,3.45,2,4.43.17,10.47.72,14.54-1,.33,0,.67-.03,1,0l1,4h-33.99s3.57,31.06,3.57,31.06l-5.57.93c-1.38-4.46-3.82-26.41-3.91-31.62-.13-7.92,13.66-5.5,19.91-5.37Z"/>
    <path class="cls-29" d="M422.33,529.89c2.56-1.12,2.72-3.31,7.02-2.61,3.96.64,17.92,6.9,22,9.09,1.12.6,6.53,3.46,6.78,3.76.49.57.06,1.48.2,1.76,1.11,2.25,1.63,4.82,3,6.99-3.04-.71-7.02-.68-9.84-1.64-4.64-1.58-16.27-7.54-20.85-10.15-2.87-1.63-7.35-4.04-8.3-7.19Z"/>
    <path class="cls-15" d="M185.01,499.24c4.2,4.57,4.85,11.15,4.24,17.05-.49,4.72-2.25,13.09-7.88,13.61-2.61-11.48-6.39-23.11-6.01-35,1.58-1.54,8.34,2.93,9.64,4.35Z"/>
    <path class="cls-18" d="M552.32,813.82c-9.14,1.97-17.97,4.61-26.99,6.99.48-2.75-1.44-9.66,1.68-10.81l31.31-7.19,1,9c-.81.92-2.81,1.74-4,2l-1.49-.99-.51.99c-.32.06-.68-.07-1,0Z"/>
    <path class="cls-13" d="M516.14,813.65c-.29.5-4.71,2.3-5.78,2.71-4.86,1.87-22.65,7.69-27,8.04-6.32.51-6.77-5.57-1.3-8.36,3.44-1.75,22.16-7.49,26.03-7.97,3.76-.46,10.99.48,8.06,5.57Z"/>
    <path class="cls-29" d="M369.34,543.88c-11.16-3.9-23.49-10.53-34.55-10.99-1.92-.08-4.01,1.02-3.45-2,3.03-1.69,14.81-10.55,17.31-9.91l20.68,22.91Z"/>
    <path class="cls-2" d="M651.31,802.83c9.97-1.58,15.71-5.23,23.49-11,1.94-1.44,2.8-1.86,2.5,1-2.2,3.7-4.31,8.61-7.45,12.04-2.04,2.23-8.68,8.03-11.27,8.72-1.95.52-3.92-.12-5.59.25-.76.17-.62,1.78-1.37,1.96-1.86.44-4.32-.2-6.31.01-.37-1.61,1.39-.42,1.95-1.73,1.1-2.57,3.2-8.51,4.05-11.26Z"/>
    <path class="cls-2" d="M59.38,632.86c-.28,3.39-.32,4.66-1.52,7.98-2.54,7.04-10.18,10.15-4.48,18-11.33-.64-18.55-11.26-19-21.99l2.01-1.48c2.11,5.04,5.09,8.25,10.99,7.47,1.41-.18,1.2-.41,2-1,.65-.36,1.37-.62,2-1,4.39-2.64,3.84-6.91,8-8Z"/>
    <path class="cls-18" d="M65.38,372.92c5.22-.31,5.11,1.67,6.5,6,1.2,3.74,7.5,31.65,6.49,33-.64.13-1.45-.14-1.99,0l-5-1c-.68-7.72-2.26-16.71-4.29-24.21-.25-.92-.99-1.69-1.71-2.29l1.91-.91-.92-4.58-1.98,2.99c-.23-3.83-3.76-3.45-6.01-5.5,1.34-1.84,7.65.15,6.99-3.49Z"/>
    <path class="cls-24" d="M528.32,717.84c-.71,4,.87,7.75,1.1,11.5.11,1.92-1.17,3.79-1.12,4.92.03.59,1.81.46,2.01,1.25.46,1.82-.24,4.35,0,6.32-7.14-7.28-15.09-13.94-21.99-21.5,6.5-1.39,13.46-1.47,19.99-2.49Z"/>
    <path class="cls-21" d="M357.34,865.81c1.48.57,2.99,1.48,4.58,1.91l1.19,1.81c1.17,4.83.87,9.79,1.35,14.65.22,2.24,1.7,5.54,1.74,7.17,0,.22-2.93,1.1-1.87,3.44-.52.55-7.71-1.8-7.01-3.99l-1.97,2.98c-.7-6.09.14-12.33.02-18.51-.04-2.12-1.71-3.97-1.66-4.95.05-1.03,2.6-3.37,1.62-5.53.94-.2,1.57.83,2,1Z"/>
    <path class="cls-21" d="M371.34,764.83c1.96-.68,1.74,1.6,2.74,1.94,3.17,1.05,22.07,5.63,23.08,6.29.39.26.59,2.03,1.75,2.66,2.73,1.47,6.18,1.97,8.41,4.62-1.28.02-5.12.56-5.99.5-6.74-.5-20.01-3.37-26-6-1.49-.65-2.9-2.14-4.97-2.05l.98-1.94-3.03-.02c.67-1.79,2.01-4.06,2.01-5.99h1Z"/>
    <path class="cls-2" d="M169.36,658.87l-6.75,7c-7,4.75-13.74,6.85-22.12,4.87l-1.12-6.88c6.32-1.5,14.56-.3,19.5-4.05l10.5-.94Z"/>
    <path class="cls-15" d="M597.31,716.84c.38-1.03.76-2.45,1.68-3.06,3.12-2.07,14.14-4.61,18.28-5.47,11.64-2.41,24.13-3.51,35.89-2.33,1.66,6.79,1.71,12.45,9.89,13.63,4.12.6,6.25-.77,9.71-.81,3.97-.05,23.77-.56,25.55.53,10.32,17.75,12.36,37.77,7.51,57.57-.34,1.37-1.3,2.24-1.52,2.93-1.01-.08-1.39.32-2,1l3.37-10.9c1.93-13.99.43-26.64-4.07-39.89-.79-2.32-2.16-7.68-4.3-8.7-12.08.06-24.53-1.48-36.42.51-4.75-4.22-7.86-6.58-8.81-13.77-2.9-3.44-29.65.69-35.16,1.86-3.01.64-10.47,2.59-13.27,3.64-2.24.84-3.85,2.93-6.34,3.26Z"/>
    <path class="cls-4" d="M476.33,957.79l.49.98.51-.98c.77-.07,1.63.93,2,1-3.71,2.42-2.65,4.25-4,8-2.98-1.2-6.73-1.54-9.69-2.81-7.65-3.28-9.49-4.16-8.3-13.18l18.99,6.99Z"/>
    <path class="cls-21" d="M566.32,516.89c1.53.34,3.07,1.5,5,1-.87.2-4.97,1.37-5.12,1.58-2.21,7.25-8.19,13.61-8.87,21.41-.98-.1-2.01.05-3,0-1.09-.06-2.51.31-3-1,3.26-6.28,5.38-15.7,10-23.99,1.6.64,3.36.63,5,1Z"/>
    <path class="cls-15" d="M316.21,286.8c-10.48,3.06-13.42-10.3-6.16-15.7,10.51-1.07,8.96,8.8,6.16,15.7Z"/>
    <path class="cls-27" d="M267.35,215.95c.53-3.77,3.49-22.95,4.99-24.5,7.15-2.9,14.66-5.13,22.19-6.81,28.48-6.36,65.42-6.16,93.05,3.57l31.75,14.73-6,1.01c-.02-.16-.91-.5-1.02-.98,1.99-.07,3.59.79,3.02-2.01-5.79.43-9.14-3.95-13.61-5.9-14.54-6.35-34.01-12.17-49.85-13.15-26.06-1.61-54.06,1.46-78.55,10.52l-3.03,13.96,1.96.62.08,1.92c-3.12-.08-3.47,4.24-3.99,7.02h-1Z"/>
    <path class="cls-2" d="M704.3,779.83c-.1.3.1.7,0,1l-.98.5.98.5c-3.87,10.23-6.79,12.48-15.41,18.13-2.14,1.4-4.02,5.39-8.59,4.86,2.12-2.7,2.57-7.86,5-9.99,2.18-1.91,7.34-3.42,10.47-6.03s4.19-5.39,6.53-7.97c.61-.68.99-1.08,2-1Z"/>
    <path class="cls-18" d="M265.35,113.98c1.08-3.31,2.57-7.37,3.83-10.67.4-1.05.83-3.46,2.16-3.32-.28,7.46-2.6,14.79-.97,22.3.13.61,4.99,2.64,1.33,5.74-4.03-.55-8.13,1.96-9.35-3.05.55-4.58,1.7-7.02,3-11Z"/>
    <path class="cls-26" d="M249.36,562.88c-.72,2.91.59,2.47,1.84,3.64,2.09,1.96,9.71,7.85,12.17,8.84,1.89.76,4.04.94,5.98,1.51-.09.33-.1,1.75,0,2-8.56,6.31-17.43-6.84-25-10,1.68-2.29,3.93-4.49,5-6Z"/>
    <path class="cls-9" d="M268.35,216.95c-1.03,6.21-.27,13.02-2,18.99,8.75.42,17.75-.54,26.49.02s30.65,2.8,36.5,6.99c-4.88-2.52-9.68-1.38-14.49-2.01-5.84-.76-12.08-2.56-18.02-2.98-10.24-.71-21.18.5-31.49,0,0-7.37.98-14.73,2-22h1c-.06.32.05.68,0,1Z"/>
    <path class="cls-21" d="M584.31,494.89c.98,3.73-3.49,4.12-5.67,6.39l-5.33,8.61c-2.89,0-3.93,1.88-6,2-.48.03-2.09-1.11-3-1,3.6-5.6,6.91-9.83,11-15,3.63-2.09,5.59-1.43,9-1Z"/>
    <path class="cls-21" d="M586.31,494.89c-.52-.15-1.35.08-2,0v-1c.51.32,1.51.33,2,1Z"/>
    <path class="cls-15" d="M252.35,255.94c-1.77,12.07-.72,24.34-.96,36.53-.16,8.01-3.54,19.06.96,26.45-.06-.04-.31.91-1.46.12-2.88-1.97-7.83-11.58-7.62-14.6s3.63-3.06,4.03-.97c.31,1.57-3.18,6.95,1.03,8.45l1.93-54.55,2.08-1.43Z"/>
    <path class="cls-7" d="M448.33,717.84c-1.36-8-2.17-16.38-2.04-24.49.04-2.3.63-1.48,2.53-1.52,1.24.51,4.46,22.56,2.5,26-.99.06-2.01-.06-3,0Z"/>
    <path class="cls-2" d="M19.38,601.87l12,10c-1.15,1.47-2.9,9.08-6.03,7.55-4.43-5.13-6.44-10.71-5.97-17.55Z"/>
    <path class="cls-5" d="M653.3,271.94l8.3-19.19c3.17-12.54,4.7-25.18,3.57-38.16-.27-3.14-.83-12.13-4.87-10.63-1.27-2.48,2.04-1.76,2.07-2.55.02-.51-2.56-8.06-3.07-9.45,13.9,23.17,8.53,58.22-6,79.98Z"/>
    <path class="cls-9" d="M414.33,335.93c1-1.6,3.86-1.15,5.48-1.01,17.16,1.56,39.46,3.56,52.52-9.99-1.16,3.62-4.19,5.41-7.33,7.16-13.46,7.51-35.8,6.66-50.66,3.83Z"/>
    <path class="cls-9" d="M467.33,345.93c-2.35,1.24-4.71,2.18-7,3.5,2.39.6,2.08,2.28,3,3.49-7.19-5.84-12.51-.03-20,2-3.12-3.71,5.06-1.07,4.99-3.99-21.1.05-43.97,1.26-61.99-11.01,18.2,8.68,38.44,10.94,58.48,9.99l22.51-3.99Z"/>
    <path class="cls-9" d="M375.34,249.95c9.35-8.38,17.29-8.44,29.46-9.04s25.48-.42,37.08.04c1.92.08,4.01-1.03,3.45,2-16.24-1.08-33.25-1.5-49.48.02-7.55.7-14.32,2.6-20.51,6.98Z"/>
    <path class="cls-27" d="M476.33,472.9c-17.52,7.59-35.35,13.86-53.99,18,2.59-1.99,3.27-2.23,6-3,13.75-3.87,27.51-8.07,40.78-13.71l7.22-1.28Z"/>
    <path class="cls-9" d="M386.34,321.93c-7.35-9.12-9.69-43.88-6.54-55.03,1-3.53,1.55-3.6,3.54-5.96-5.91,19.33-3.26,42,3,60.99Z"/>
    <path class="cls-9" d="M265.35,252.95c1.95,4.7-.88,5.18-.99,5.66-.34,1.47-1.01,13.79-1.01,15.84v18c0,.34-.95,1.67-1.04,2.96-.24,3.48.25,7.05.03,10.53l-1.99-1c.43-6.27,2-14.77,2-20.5v-20c0-.32.92-1.69,1.04-2.96.25-2.82-.25-5.72-.03-8.54.64-.14,1.45.14,1.99,0Z"/>
    <path class="cls-27" d="M492.32,229.95c8.2,1.27,17.57,2.93,25.6,3.89,2.77.33,19.64.42,20.4,1.11-.05.99.08,2.01,0,3-5.13-1.75-12.03-2.8-17.49-3.04-2.25-.1-5-.8-4.53,2.03l-2.6-2.87c-6.52.06-12.72-1.86-19.1-2.72-1.61-.22-2.65,1.89-2.28-1.4Z"/>
    <path class="cls-9" d="M261.35,348.92c-3.3-1.63-5.74-2.84-8.86-5.17l1.82-6.41,20.03,2.59-2,13c-4.18-.34-7.49-2.27-10.99-4,2.03.81,7.42.71,9.99,2l1.01-8.99-18-3c-.04,1.68-.27,3.41.49,5,.18.37,6.12,4.84,6.5,4.99Z"/>
    <path class="cls-28" d="M496.32,275.94l28.99,4.99c-10.13-.89-19.88-.35-29.99.01.09-1.46-.21-2.96.09-4.42l.91-.57Z"/>
    <path class="cls-9" d="M562.32,393.91c3.34-.78,5.09,1.74,8.79,2.71,18.2,4.76,30.22,2.4,46.2-6.71-14.79,13.3-38.14,13.86-54.99,4Z"/>
    <path class="cls-27" d="M360.34,381.92c-13.2,8.77-32.62,12.95-46.99,5,7.7,1.93,16.53,2.71,24.48,1.98,3.49-.32,13.74-1.51,12.52-5.98l2.46,2.03,7.52-3.03Z"/>
    <path class="cls-10" d="M326.35,126.97c1,.02,2-.01,3,0,.15.31.77.62,1,1-11.66-.94-25.2-.17-37,0l-.5-.98-.5.98c-1,.02-2-.02-3,0l-.5-.98-.5.98c-.67.02-1.33-.02-2,0,1.04-1.67,2.71-1.88,4.48-2.02,11.82-.94,23.79.77,35.52,1.02Z"/>
    <path class="cls-2" d="M10.39,566.88c3.19.13,3.44,4.82,5.57,6.93,1.32,1.3,2.58,1.9,4.42,2.07-1.06,1.1-3.97,7.46-5.99,6-2.69-5.98-3.78-8.35-4.01-14.99Z"/>
    <path class="cls-16" d="M185.36,590.87c-2.82.59-1.89-1.39-2.3-3.15-2.87-12.55-5.76-25.34-8.06-38-.27-1.46-1.54-3.89.36-4.84,3.27,15.3,7,30.65,10,45.99Z"/>
    <path class="cls-15" d="M607.31,807.83c-.4-.19-1.4.13-2,0,6.82-12.1,4.65-34.09-2-45.99.93-1.92,1.69.74,1.99,1.47,6.39,15.24,8.37,28.68,2.01,44.52Z"/>
    <path class="cls-9" d="M414.33,492.89c-14.88,2.62-30.85,4.13-45.99,3,.79-2.45,2.24-1.88,4.18-1.77,13.68.73,23.31-.06,36.82-1.74,1.51-.19,3.98-1.46,4.99.51Z"/>
    <path class="cls-13" d="M57.38,365.91c-1.94,2.11-3.48-4.93-3.72-5.78-2.09-7.48-3.54-16.44-4.27-24.2,1.51-.14,1.59,2.45,1.91,3.57,2.46,8.62,3.53,17.8,6.08,26.41Z"/>
    <path class="cls-9" d="M488.33,324.93l7-35.99c-.22,11.77-.72,25.42-7,35.99Z"/>
    <path class="cls-1" d="M365.34,276.94v1l-23-1.01c-.81.83,1.89,6.91-1.99,6,.12-2.65-.09-5.35,0-8l25,2Z"/>
    <path class="cls-9" d="M369.34,312.93c-2.97,1.92-1.61.73-2.02-1.46-2.1-11-2.1-22.34-1.98-33.53v-1l.91.56c-.9,2.79,1.08,7.27,1.08,8.94v17c0,1.59,1.57,7.28,2,9.5Z"/>
    <path class="cls-9" d="M465.33,392.92c4.33-13.01,4.7-26.33-1-38.99,8.01,11.91,8.25,26.87,1,38.99Z"/>
    <path class="cls-15" d="M581.31,734.84l-6,16.5v14.5c3.18,0,7.21-4.62,10-2-3.96,1.41-7.99,2.73-12,4v-14.5c0-4.85,5.17-14.36,8-18.5Z"/>
    <path class="cls-26" d="M349.34,684.85l-11,.99c-1.17,1.18,1.63,29.07-.99,33l.94-34.55c3.68-1.4,7.41.17,11.06.56Z"/>
    <path class="cls-2" d="M37.38,554.88c5.25.24.28,3.26.21,3.48-.21.73.9,2.52-.39,4.8-1.81,3.2-6,3.4-7.82,4.71,2.07-3.79,4.15-7.53,6.16-11.37.48-.92,1.69-1.35,1.84-1.62Z"/>
    <path class="cls-16" d="M67.38,610.87c6.23,7.85,5.43,18.62,3.55,28.04-.26,1.31-1.14,6.7-3.55,5.95,3.85-11.28,4.52-22.86,0-33.99Z"/>
    <path class="cls-1" d="M381.34,429.91c-9.87,3.07-17.09,3.87-27.56,2.02-1.86-.33-4.01,1.15-3.43-2.02,10.26,1.89,20.66,1,31,0Z"/>
    <path class="cls-10" d="M498.32,219.95l28.53,3.01,3.47,1.99c-11.57-1.28-20.6-2.6-32-5Z"/>
    <path class="cls-16" d="M191.36,625.86c-1.48-1.19-1.52-2.96-1.86-4.64-1.45-7.34-2.33-16.7-4.17-23.66-.18-.7-3.71-1.09.03-5.69,1.78,9.17,6.43,25.55,6,33.99Z"/>
    <path class="cls-9" d="M328.35,281.94c-.2,6.16-1.13,12.18-1.14,18.36l-4.85,1.63,2-7.99.99,4.99c1.33-4.54.85-8.93,1.01-13.54.07-1.92-1.02-4.01,2-3.45Z"/>
    <path class="cls-9" d="M433.33,256.94l25.38,1.12c5.03.72,20.62,4.39,23.31,8.18s.77,16.52.31,21.69c-3.24-5.51,2-19.45-3.46-23.03-3.79-2.49-18.19-5.21-23.16-5.83-7.09-.89-15.42-.11-22.37-2.13Z"/>
    <path class="cls-13" d="M362.34,630.86c-1.87-1.14-1.59-2.17-1.55-3.99.21-8.56,3-19.66,4.55-28-.48,10.7-2.01,21.33-3,31.99Z"/>
    <path class="cls-9" d="M373.34,251.95l-4.01,9.01c-8.39-1.76-18.53-1.53-26.98,0-.57-3.15,1.56-1.71,3.43-2.02,8.07-1.34,14.84-1.24,22.95.09,1.02-3.44,2.55-4.67,4.62-7.07Z"/>
    <path class="cls-14" d="M183.36,640.86c-7.34,7.95-21.84,7.65-32,10l-.5-.99c11.26-2.18,22.74-4.07,32.5-9.01Z"/>
    <path class="cls-1" d="M340.34,283.94c3.37,3.48-1.24,16.74.13,18.87,7.8,2.22,14.86,6.81,19.86,13.13-6.62-5.11-13.29-11.02-22-12.01,1.27-6.56,1.57-13.33,2.01-19.99Z"/>
    <path class="cls-9" d="M528.32,279.94c1.48.27,3.42-.2,5,0,.93.92-2.05,22.71-5,25,.9-7.89,3.13-15.56,4.03-23.46l-4.03-1.53Z"/>
    <path class="cls-16" d="M161.37,482.9c-.15.01-.52.89-.98,1.01-.97-9.48-3.81-18.63-5.59-27.96-.29-1.53-1.28-4.09.57-5.05,2.28,10.59,4.64,21.22,6,31.99Z"/>
    <path class="cls-14" d="M65.38,660.86l6.52,3.98c7.66,1.83,15.53-3.12,22.47-.98-11.36,2.2-20.4,6.86-29-3Z"/>
    <path class="cls-9" d="M428.33,228.95c-7,3.35-16.27,2.67-24,4,8.91-2.46,14.16-4.27,24-4Z"/>
    <path class="cls-15" d="M39.38,619.87c-.15,4.05-3.52,8.04-2.82,12.24,1.26,7.59,4.76,7.9,10.82,10.75-5.9.77-8.88-2.43-10.99-7.47l-2.01,1.48c-.25-6.05.57-12.68,5-17Z"/>
    <path class="cls-9" d="M336.34,426.91c.56,2.61-1.3,2.04-2.98,2.47-6.27,1.61-11.78,1.95-18.25,1.23-1.48-.16-5.58-.09-4.77-2.71,11.87,2.93,14.65,1.36,26-1Z"/>
    <path class="cls-9" d="M309.35,250.95c-12.35,1.15-24.56.33-37,1l37-1Z"/>
    <path class="cls-9" d="M453.33,233.95c-7.09-1.26-14.4-1.71-21.48-3.03-2.11-.4-3.5,1.09-1.52-1.96,7.77.49,15.98,2.3,23,5Z"/>
    <path class="cls-9" d="M450.33,408.91l.96.89c-9.51,4.93-17.77,6.54-28.5,6.11-1.92-.08-4.01,1.03-3.45-2,4.11.32,6.59,1.26,11.37.87,6.93-.57,13.38-3.13,19.62-5.87Z"/>
    <path class="cls-9" d="M280.35,322.93c-.7.89-2.69,5.66-3.44,5.76-7.16-.54-11.94-1.45-18.56-3.76.46-.15.9-.53,1-1,4.36,3.06,7.56,1.34,11.57,1.11.3-.02-.09,2.66,4.94,1.96,2.95-.41,2.47-5.98,4.49-4.07Z"/>
    <path class="cls-9" d="M429.33,357.92c-7.27,1.12-15.59,1.52-23,2-.56-3.01,1.53-1.94,3.45-2,5.15-.15,9.06-.54,14.07-1,1.62-.15,4.47-.6,5.48,1Z"/>
    <path class="cls-16" d="M124.37,414.91c1.93,2.98.71,1.59-1.46,2.03-4.45.89-9.03,1.79-13.51,2.53-1.53.25-4.06,1.32-5.04-.55,5.42-1.62,14.33-3.27,20-4Z"/>
    <path class="cls-9" d="M531.32,335.93c-6.58-7.36-6.95-21.11-3-29.99-1.14,10.76-2.35,20.01,3,29.99Z"/>
    <path class="cls-16" d="M48.38,546.88c3.3,8.28-.43,15.98,4.88,20.18l-.88.82-4.01-1.58c2.53-6.35,0-12.95,0-19.41Z"/>
    <path class="cls-16" d="M76.38,435.91c-5.63,1.24-12.88,3.87-18.59,4.04-1.81.05-2.03.19-3.41-1.04,7.43-.48,14.48-3.67,22-3Z"/>
    <path class="cls-13" d="M567.32,511.89l-1,5c-1.64-.37-3.4-.36-5-1,1.2-2.15,1.72-3.01,3-5,.91-.11,2.52,1.03,3,1Z"/>
    <path class="cls-18" d="M247.36,158.97c-14.21,2.55-27.35,5.02-40.7,10.8-1.26.55-3.24,2.38-4.3.2,10.72-5.06,24.82-9.08,36.55-10.94,2.12-.34,6.68-1.31,8.45-.05Z"/>
    <path class="cls-9" d="M289.35,277.94c-1.06,7.46-1.12,12.55,0,20-2.7,1.78-1.9.98-2-1.48-.26-6.54-.11-13.1,1.02-19.52.45.13.83,1,.98,1.01Z"/>
    <path class="cls-10" d="M402.34,181.96c13.91,4.83,25.69,12.38,39.33,18.17.71.3,4.13.93,1.67,1.82-13.91-6.01-28.08-12.27-40.99-20Z"/>
    <path class="cls-26" d="M696.3,669.86c-4.08,1.72-10.12,1.17-14.54,1-1.92-.08-4.01,1.03-3.45-2,6.01.13,11.94.85,18,1Z"/>
    <path class="cls-24" d="M550.32,752.84c0,7.63-.7,15.55,1,22.99-.62.15-1.54-.17-2,0,.61-7.43-1.29-15.89,1-23Z"/>
    <path class="cls-9" d="M570.32,326.93c2.33-4.99,4.14-11.2,8-15-1.64,3.45-2.9,8.19-4.68,11.81-.82,1.66-.69,3.36-3.32,3.18Z"/>
    <path class="cls-27" d="M491.33,229.95c-6.46-1.01-12.6-2.78-19-4-.4-1.27-2.22-2.36.46-1.97,5.9.87,12.8,4.09,18.54,5.97Z"/>
    <path class="cls-18" d="M280.35,156.97c-6.8,1.67-16.19,1.67-23,0,7-.4,16-.39,23,0Z"/>
    <path class="cls-15" d="M50.38,593.87c-2.84-6.48.35-18.05-10.23-16.81l-9.76,3.82c14.17-12.64,21.12-1.94,20,13Z"/>
    <path class="cls-10" d="M458.33,207.96c7.81,1.45,15.23,4.45,22.81,6.73,1.7.51,3.79-.69,3.18,2.27-9.27-2.43-17.28-5.7-26-9Z"/>
    <path class="cls-15" d="M55.38,613.87c-2.47,2.47-5.76-.25-8.8.61-.53.15-5.58,3.81-6.2,4.39,2.9-5.63,9.28-8.73,15-5Z"/>
    <path class="cls-9" d="M482.33,289.94c-.52,4.8-.9,10.81-3,15,.5-4.38.6-9.08,1.01-13.5.22-2.35-.86-3.35,1.99-1.5Z"/>
    <path class="cls-10" d="M426.33,149.97c.85-1.87,3.24-.5,4.53-.04,10.27,3.64,18.86,8.4,29.46,12.05.18,1.14-1.01.92-1,.99-11.05-4.23-21.84-9.02-33-13Z"/>
    <path class="cls-10" d="M281.35,149.97c3.39-2.21,8.89-.49,13.01-1v2c-4.26-.16-8.27-.99-13.01-1Z"/>
    <path class="cls-10" d="M307.35,151.97l-11-1c5.38.2,4.55-.6,11,1Z"/>
    <path class="cls-10" d="M384.34,174.96c-5.65-2.03-11.31-4.06-17-6,1.12-1.61,4.52.07,5.96.55,3.75,1.26,8.28,2.64,11.04,5.45Z"/>
    <path class="cls-9" d="M478.33,313.93c-2.03-1.64-.35-6.14,1-8-.32,2.67-.33,5.36-1,8Z"/>
    <path class="cls-13" d="M49.37,334.92h-.98s-1-5.99-1-5.99c2.53.77,2.04,3.8,1.98,5.99Z"/>
    <path class="cls-5" d="M620.31,176.96c-1.63-1.93-3.5-3.87-3.98-6.45l.98-.54c1.2,2.22,2.15,4.62,3,7Z"/>
    <path class="cls-10" d="M392.34,177.96l-7-3c3.36,1.18,3.8,1.3,7,3Z"/>
    <path class="cls-5" d="M616.31,167.96c-.05-.11-1.18-.45-1.78-1.67-1.27-2.58-2.03-6.53-3.22-9.33,1.97,3.43,4.56,6.96,5,11Z"/>
    <path class="cls-26" d="M697.3,669.86c.66.05,1.34-.07,2,0,.23,1.22-.28,2.95,0,4h-1l-1-4Z"/>
    <path class="cls-25" d="M474.33,233.95c-.07-1.27.22-2.88,0-4,1.41.84,1.62,3.46,0,4Z"/>
    <path class="cls-15" d="M597.31,717.84c-.39,1.12.95,2.5-2,2,.52-.48.8-1.8,2-2Z"/>
    <path class="cls-15" d="M588.31,726.84c-.19.36.13,1.39-.01,2-1.14.18-.92-1.01-.99-1l1-1Z"/>
    <path class="cls-19" d="M641.31,805.83c-.24-2.02,1.12-2.15,2-3-.26,1.33-1.26,2.04-2,3Z"/>
    <path class="cls-5" d="M555.32,813.82c-.6.13-1.39-.12-2,0l.51-.99,1.49.99Z"/>
    <path class="cls-6" d="M400.85,529.91c.99.66-.47,1.32-1.02,1.96l-.47-.47,1.49-1.49Z"/>
    <path class="cls-18" d="M289.35,127.97c-.33,0-.67,0-1,0l.5-.98.5.98Z"/>
    <path class="cls-18" d="M293.35,127.97c-.33,0-.67,0-1,0l.5-.98.5.98Z"/>
    <path class="cls-24" d="M550.32,749.84l-.98-.5.98-.5c0,.33,0,.67,0,1Z"/>
    <path class="cls-24" d="M535.32,485.89l1-1c-.36.26-.66.83-1,1Z"/>
    <polygon class="cls-15" points="704.3 781.83 703.32 781.33 704.3 780.83 704.3 781.83"/>
    <path class="cls-27" d="M312.35,386.92c-.31-.09-.69.08-1,0l.5-.98.5.98Z"/>
    <path class="cls-6" d="M546.32,866.81l1-1c-.25.03-.72.97-1,1Z"/>
    <path class="cls-2" d="M59.38,628.86c.07-.47.52-.89,1-1-.07.47-.52.89-1,1Z"/>
    <polygon class="cls-23" points="328.35 897.81 329.35 897.81 328.85 898.79 328.35 897.81"/>
    <path class="cls-23" d="M483.33,910.8c.28-.12.71.12,1,0l-.49.98-.51-.98Z"/>
    <path class="cls-25" d="M369.34,372.92l1-1c-.28.37-.71.64-1,1Z"/>
    <polygon class="cls-23" points="476.33 957.79 477.33 957.79 476.82 958.78 476.33 957.79"/>
    <path class="cls-26" d="M478.33,647.86c2.84,2.39-4.78,4.42-5.67,5.64l-38.77-.69c-4.7-.87-17.23-15.67-19.49-20.5-.03-19.47,1.95-38.98,4.05-58.32l90.88.9-1,4.99c-.33-.02-.67.01-1,0-28.26-.9-56.72.67-84.99,0l-1,23c24.3.37,48.7-.5,73,0,1.33.03,2.67-.06,4,0,.66.03,1.34-.06,2,0,1.25.11,3.37-.56,4,1v1c-.29.77-.99,1.89-1,2l-82.06.44c-1.69,1.19-.85,12.15-.94,15.05-.12,3.71-2.24,7.33-.47,11.49.4.94,13.56,14.07,14.5,14.5,4.51.98,9.38.52,13.98.52s9.43.08,14,0c.67-.01,1.33,0,2,0,3.95-.03,10.99.46,14-1Z"/>
    <path class="cls-26" d="M415.75,566.3c-1.45,1.12-8.73,7.49-8.99,8.48l-2.2,23.48c6.33,7.14,2.62,17.1-7.78,15.66-6.44-.89-8.84-10.9-2.98-15.07,1.44-1.03,5.17-1.78,5.39-2.11,1.06-1.61,1.32-18,2.38-22.11,2.1-8.14,13.81-13.4,18.77-20.25l75.26,1.3c1.61-.49,16.57-15.93,17.23-17.86.85-2.47-2.65-5.82-2.32-9.2.51-5.23,5.24-12.01,11-11.53,13.35,1.1,12.52,16.9,2.52,21.02-2.09.86-4.15.53-6.27,1.73-5.48,3.09-13.3,20.38-18.41,21.62-22.47-1.16-45.06-.42-67.57-.53-2.09,0-4.1-1.11-5.91-1.01-3.32.19-7.49,4.33-10.13,6.38ZM519.03,522.02c-4.55,1.27-5.91,12.6,1.7,11.86,9.85-.96,6.28-14.09-1.7-11.86ZM395.49,608.71c1.88,2.98,9.63-.74,7.4-4.85-3.33-6.15-10.39.09-7.4,4.85Z"/>
    <path class="cls-21" d="M508.32,579.87c1.66.09,3.35-.08,5,0-2.12,17.05-2.5,34.45-6.21,51.29-6.66,6.78-15.17,11.16-23.28,15.75l-3.49-2.04c.23,1.11-1.25,2.62-2.02,2.99-3.01,1.46-10.05.97-14,1-.56-3.03,1.53-1.92,3.45-2,2.08-.09,5.12.47,6.89-.15,1.42-.5,1.62-2.48,2.75-3.24,4.51-3.04,10.86-5.64,15.17-8.62,2.64-1.82,2.41-5.51,7.72-3.99l-.87-2.52c-.05-.48,1.52-.35,2.05-1.83,1.85-5.18,1.6-14.49,1.82-19.64,0-.11.71-1.23,1-2,.07-.19.94-.21.98-.5l-.98-.5c-.63-1.56-2.75-.89-4-1l4.87-3.63,2.13-19.36c.33.01.67-.02,1,0Z"/>
    <path class="cls-26" d="M613.62,601.18c8.74-9.89,24.3,2.97,15.1,13.61-8.41,9.72-23.97-3.57-15.1-13.61ZM618.98,603.03c-3.28,1.13-4.28,8.99.89,9.84,9.81,1.61,8.19-12.97-.89-9.84Z"/>
    <path class="cls-28" d="M604.31,370.92c1.4-2.16,3.8-2.96,5.52-4.98,8.75-10.24,10.79-19.55,3.67-31.71-2.36-4.03-5.69-6.05-8.12-9.68,8.5-10.7,16.84-12.68,27.95-4.15,1.48,1.14,2.13,3.02,1.98-.48,8.92,19.97-6.73,50.38-29.36,51.94-.7.05-1.48-.97-1.63-.95Z"/>
    <path class="cls-30" d="M635.31,319.93c.15,3.51-.5,1.62-1.98.48-11.11-8.54-19.45-6.56-27.95,4.15,2.43,3.63,5.76,5.65,8.12,9.68,7.12,12.16,5.09,21.46-3.67,31.71-1.72,2.01-4.12,2.82-5.52,4.98-1.6.15-3.19.96-5,1l-2-1c2.53.77,1.82-1.85,2-2,.37-.31,1.92-.16,3.01-1.45,6.38-7.53,9.2-21.39.99-28.55-.34-.29-.67-.84-1-1-.56-2.19-3.84-3-5-1-5.21,1.36-15.83,17.78-15,23.99-2.73-10.24-.24-23.85,5.57-32.93,10.31-16.13,36.54-32.46,47.43-8.06Z"/>
    <path class="cls-30" d="M423.33,423.91c.68.91,1.8,2.96,1.55,4.09-.64,1.62-1.82,2.76-3.06,3.91-6.63,6.14-18.22,10.93-26.49,14-23.61,8.77-51.91,14.06-71.99-5-.51-.8-4.85-9.33-1.52-7.99,2.01.81,5.91,4.21,8.49,5.51,12.41,6.23,23.11,7.57,37.02,6.48,12.12-.95,27.96-7.11,38.68-12.81,5.58-2.97,10.7-9.15,17.31-8.19Z"/>
    <path class="cls-28" d="M602.31,337.93c.33.16.66.71,1,1,3.89,6.73,4.21,21.37-.96,27.32-.15.17-2.84,2.5-3.04,2.67-.31.27-1.77.21-2.54.96l.54,1.04,2,1c-.1,0-.58.84-1.44.86-7.97.22-13.56-4.35-15.56-11.86-.83-6.22,9.79-22.64,15-23.99,1.62-.42,3.52.3,5,1Z"/>
    <path class="cls-9" d="M395.34,445.9c.56,2.45-4.1,3.15-5.76,3.74-18.31,6.52-54.25,10.29-66.23-8.74,20.08,19.06,48.38,13.77,71.99,5Z"/>
    <path class="cls-9" d="M423.33,423.91c-6.61-.97-11.73,5.22-17.31,8.19-10.72,5.7-26.56,11.86-38.68,12.81-.57-3.24,1.64-1.66,3.49-1.97,14.12-2.35,24.92-6.98,37.36-13.68,4.81-2.59,11.67-10.03,15.15-5.35Z"/>
    <path class="cls-3" d="M338.34,52.99c.32-.77,2.04-4.52,2.23-4.7.94-.92,3.65-.56,5-1.36.85-.51,1.08-1.64,2.02-2.24,2.7-1.73,6.58-2.14,5.76-5.69l1.45,1.98c14.29-6.88,35.64-8.1,50.55-2.5,4.35,1.64,9.31,6.5,12.64,8.31,1.39.75,4.85.94,5.18,1.36.52.66-.14,2.82.61,3.88.27.38,5.24,3.77,6.58,5.42,11.42,14.17,11.63,33.26,5.71,49.82-.57,1.6-.36,3.21-2.75,2.7,8.48-25.61,6.77-48.14-17.67-63.81-25.56-16.39-54.4-10.42-77.32,6.82Z"/>
    <path class="cls-3" d="M325.35,68.99c-9.37,28.78-8.72,31.07,4,57.99-1-.01-2,.02-3,0,1.43-4.14-1.39-4.61-1.97-5.74-8.93-17.46-9.74-31.71-2.14-49.9.79-1.88-1.05-2.91,3.11-2.35Z"/>
    <path class="cls-3" d="M325.35,67.99c.74-2.38,2.15-5.02,1-6.98l4-1.02c-1.23,1.74-2.08,6.34-5,8Z"/>
    <path class="cls-3" d="M432.33,112.98c-.39,1.15-.09,3.22-.9,4.39s-1.94.46-2.1.6l3-5Z"/>
    <path class="cls-3" d="M432.33,111.98l1-1c-.23.67-.98.93-1,1Z"/>
    <path class="cls-30" d="M152.37,492.89c1.78,25.17,8.88,51.92,15,76.98,1.55,6.37,3.35,12.67,5,19-.18,11.09,7.92,22.46,3,32.99-1.31.25-1.43,1.16-2,2-14.82,3.78-29.98,6.15-44.99,9-13.5,2.56-26.95,5.68-40.55,7.85-3.54-.63-6.54-2.93-8.45-5.85l-7-32.99c-.04-.33.04-.67,0-1-.32-2.63-1.77-6.58-3-9-.04-.33.05-.67,0-1-.31-2.14-.61-3.9-1-6-.36-1.95-.97-2.82-1-3-.42-2.19-.54-4.72-1-7-.68-3.32-1.32-6.68-2-10-1.37-6.71-8.08-41.3-10.43-44.08-1.61-1.91-4.38-1.93-4.56-5.91-.31-2.13-.54-5.05-1-7-.31-1.33-1.03-2.99-2-4-.02-.33.03-.67,0-1-.72-7.42-2.57-13.81-4-21-.33-1.66-.66-3.34-1-5-2.29-11.07-9.48-21.78,5-25.99,26.28-7.66,56.88-8.83,83.63-15.89,5.29-.85,8.74,1.28,10.66,6.09,5.63,14.13,7.07,36.65,11.69,51.79ZM122.37,443.9c-16,.37-54.96,8.06-71,12.48-2.1.58-6.71.89-6.78,3.78,2.33,6.6,9.57,51.34,12.78,53.24,1.75,1.04,5.3.52,7.39.35,17.54-1.45,44.43-7.38,61.62-11.86,3.74-.3,18.15-1.26,19.52-4,1.7-3.38-5.88-29.05-7.23-34.79-2.48-10.52-.12-27.19-16.29-19.2ZM68.38,519.89c-2.97.51-5.93,1.27-9,1l26.55,110.92,5.83,2.99c12.82-2.89,25.75-5.33,38.61-7.94,10.45-2.12,22.99-3.56,33-6.49,2.95-.87,7.4-1.55,7.99-5.05l-23-110.43c-26.56,5.34-53.27,10.44-79.98,15Z"/>
    <path class="cls-16" d="M152.37,492.89l15,76.98c-6.11-25.07-13.22-51.81-15-76.98Z"/>
    <path class="cls-16" d="M173.36,623.87c-.04.06,1.28.7.09,1.44-3.24,2.03-33.66,7.29-39.84,8.31-1.58.26-4.26.99-5.24-.76,15.01-2.85,30.18-5.22,44.99-9Z"/>
    <path class="cls-16" d="M172.36,588.87c2.84,10.86,9.25,22.88,3.9,33.98l-.9-.98c4.92-10.53-3.18-21.9-3-32.99Z"/>
    <path class="cls-16" d="M49.38,514.89c.19,3.98,2.95,4,4.56,5.91,2.35,2.78,9.06,37.37,10.43,44.08-2.82.59-1.89-1.39-2.3-3.15-2.57-11.07-4.36-29.66-7.89-39.15-.75-2.03-5.06-2.58-5.58-6.35-.1-.7.78-1.26.77-1.33Z"/>
    <path class="cls-16" d="M46.38,450.9c-14.48,4.22-7.28,14.93-5,25.99-2.9.6-1.82-1.43-2.28-3.17-1.75-6.65-5.58-16.77.93-21.67,1.18-.89,5.19-3.31,6.35-1.15Z"/>
    <path class="cls-16" d="M46.38,502.89c-2.13-4.66-3.56-10.9-4.56-15.95-.3-1.53-1.28-4.08.56-5.05,1.43,7.19,3.28,13.57,4,21Z"/>
    <path class="cls-16" d="M79.38,634.86c-2.9-4.44-6.77-23.63-7.81-29.86-.38-2.27.83-2.97.81-3.13l7,32.99Z"/>
    <path class="cls-16" d="M67.38,581.87l-.98,1.01c.46-2.58-2.35-6.16-.02-8.01.46,2.28.58,4.81,1,7Z"/>
    <path class="cls-16" d="M69.38,590.87c-1.1-1.27-2.64-5.08-1-6,.39,2.1.69,3.86,1,6Z"/>
    <path class="cls-16" d="M72.38,600.87h-1.97c-.09-3.02-.62-6.02-1.03-9,1.23,2.42,2.68,6.37,3,9Z"/>
    <path class="cls-16" d="M48.38,507.89h-2c-.1-1.32.09-2.67,0-4,.97,1.01,1.69,2.67,2,4Z"/>
    <path class="cls-5" d="M368.34,83.98c2.49-2.18,6.09-6,8.34-7.71.82-.63,2.51-.15,2.65-.29.61-.62-.46-3.99-1.5-3.99h-26c-3.01,0-.33-10.11-.31-12.31l1.31-1.69h56.49l-1,15c-1.99,3.26-2.2,2.56-4.53,4.97-7.13,7.36-14.33,14.68-21.47,22.03-1.45,1.49-4.19,2.7-5,4.99,2.66.05,5.34-.03,8,.01.67.01,1.33,0,2,0s1.33,0,2,0c3.65-.05,7.35.13,11,0h4c.32.19.82.68,1,1-.04,4.02-1.4,8.11-2,12l-.99-3.99-1.62,8.05c-7.74-1.6-49.56,2.01-53.2-.31-.49-.31.24-1.91-.68-1.76-1.05,3.35-3.95,3.1-3.85-.74.25-9.65.66-9.07,5.97-16.17,1.43-1.91,1.26-1.93,1.37-2.07,4.87-5.88,12.18-11.89,18-17Z"/>
    <path class="cls-3" d="M383.34,55.99l.5.98.5-.98c3.33,0,6.67-.02,10,0,1.58,1.68,6.46,1.67,8,0,2.99.06,6.01-.05,9,0l-1.05,14.48c.35,1.73-1.79,2.25-1.95,2.52l1-15h-56.49l-1.31,1.69c-.01,2.21-2.69,12.31.31,12.31h26c1.04,0,2.1,3.37,1.5,3.99-.14.14-1.83-.34-2.65.29-2.25,1.72-5.86,5.53-8.34,7.71l9-10h-29l2.01-17.99c10.98,0,22-.04,32.99,0Z"/>
    <path class="cls-3" d="M350.34,100.98c-.12.14.05.17-1.37,2.07-5.32,7.1-5.73,6.51-5.97,16.17-.1,3.84,2.8,4.09,3.85.74.92-.15.19,1.45.68,1.76,3.64,2.33,45.46-1.29,53.2.31l1.62-8.05.99,3.99c-.29,1.9.42,4.15-1,6-1-.02-2,.01-3,0-15.71-.23-31.37-.67-46.99-1-.33,0-.67,0-1,0-.67,0-1.33,0-2,0-.33,0-.67,0-1,0h-4l-3.07-.54c-.58-9.33.77-16.37,9.07-21.45Z"/>
    <path class="cls-11" d="M348.34,122.97l.5.98.5-.98c.67,0,1.33,0,2,0l.5.98.5-.98c15.63.33,31.29.77,46.99,1,.58,2.92-1.58,2.05-3.49,2.03-3.33-.03-5.98-.97-8.97-1.07-14.47-.52-29.07.48-43.54.03l1.01-1.99h4Z"/>
    <path class="cls-11" d="M402.34,123.97c1.42-1.85.71-4.1,1-6,.6-3.88,1.96-7.97,2-12,.8,1.43,1.09,1.39,1.11,3.45.03,2.6-.68,10.5-1.11,13.04-.2,1.17-.47,1.93-1.61,2.47-.68.18-1.28-.96-1.39-.96Z"/>
    <path class="cls-11" d="M382.34,99.98l2.98,3.68.02,1.32c-2.66-.04-5.34.04-8-.01.81-2.29,3.55-3.5,5-4.99Z"/>
    <path class="cls-5" d="M402.34,55.99c-1.54,1.67-6.42,1.68-8,0,2.66.02,5.34-.06,8,0Z"/>
    <path class="cls-11" d="M404.34,104.98h-4c1.17-.04.71-1.98,4,0Z"/>
    <path class="cls-11" d="M387.34,104.98v-1.99s1.49-.01,1.49-.01l.51,2c-.67,0-1.33,0-2,0Z"/>
    <path class="cls-5" d="M383.34,55.99c.33,0,.67,0,1,0l-.5.98-.5-.98Z"/>
    <path class="cls-13" d="M335.34,545.88c5.32.38.06,2.43.04,2.63-.11,1.1.81,2.83-.05,4.36l-5-1.5-1,2.51c-2.82-.91-4.31-1.43-3.99-5.01,3.38,2.19,1.23-.49,2.18-1.73.9-1.17,5.25-.55,7.81-1.26Z"/>
    <path class="cls-30" d="M448.33,283.94c2.19,12.92.99,22.75-6,33.99-.31.34-.66.68-1,1-7.14,4.59-14.65,5.98-22,1-1.53-1.68-4.88-6.89-6-9-1.82-7.63-2.41-15.13-2-23,.46.04.84,0,.99-.51,2.13-26.24,30.86-33.94,36.01-3.49ZM434.03,275.13c-4.91,1.51-5.04,14.28-1.04,15.64,11.74,4,12.8-19.25,1.04-15.64Z"/>
    <path class="cls-9" d="M442.33,317.93c6.99-11.25,8.18-21.08,6-33.99,2.94-1.91,1.69-.75,1.97,1.51,1.57,12.58.78,22.81-7.97,32.48Z"/>
    <path class="cls-9" d="M419.33,319.93c7.35,4.98,14.86,3.59,22-1-7.22,6.82-14.38,9.32-22,1Z"/>
    <path class="cls-9" d="M411.34,287.94c-.41,7.87.18,15.36,2,23-4.34-8.19-2.89-14.87-2.98-24.01.46.13.83,1,.98,1.01Z"/>
    <path class="cls-30" d="M330.35,212.95c2.21,5.55,3.09,14.02,3,20-.65-.06-1.37.1-2,0-8.9-7.43-26.51-12.63-38-11-3.41.49-6.53,1.48-9.68,2.82-4.64,1.98-7.89,5.2-12.32,7.17-.86-.98.99-14.94,1.99-15.99.21-.22,1.63.26,1.97-.02.45-.36,3.49-7.98,5.2-10.31,13.88-18.87,41.51-13.54,49.82,7.33Z"/>
    <path class="cls-9" d="M331.35,232.95c-3.43-.53-10.8-5.42-14.8-6.7-2.78-.89-10.82-2.76-13.78-3.22s-6.95.98-9.42-1.08c11.48-1.64,29.09,3.57,38,11Z"/>
    <path class="cls-9" d="M332.34,212.95c.18,3.37,4.29,18.57,1,20,.09-5.98-.79-14.45-3-20l.48-.72c.62-.07,1.2.7,1.52.72Z"/>
    <path class="cls-26" d="M315.97,588.94c1.51-.44,6.16,1.44,6.91,2.91,2.78,5.45-5.85,8.46-8.04,4.02-.88-1.78-1.14-6.27,1.12-6.93Z"/>
    <path class="cls-30" d="M686.98,682.01c5.52-.47,6.54,21.53-3.54,13.19.07-3.96-2.01-12.72,3.54-13.19Z"/>
    <path class="cls-24" d="M574.56,542.13c4.01-4.01,10.7,1.5,6.84,6.35-3.82,4.8-11.47-1.72-6.84-6.35Z"/>
    <path class="cls-15" d="M51.38,640.86c-.63.38-1.35.64-2,1,.42-.31.71-1.65,1.5-1.98l.5.98Z"/>
    <path class="cls-25" d="M261.35,348.92c-.38-.15-6.33-4.62-6.5-4.99-.76-1.59-.53-3.32-.49-5l18,3-1.01,8.99c-2.57-1.28-7.96-1.19-9.99-2Z"/>
    <path class="cls-24" d="M503.32,606.87c-.23,5.14.03,14.46-1.82,19.64-.53,1.48-2.09,1.35-2.05,1.83l.87,2.52c-5.31-1.53-5.08,2.16-7.72,3.99-4.31,2.98-10.66,5.58-15.17,8.62-1.13.76-1.34,2.75-2.75,3.24-1.77.62-4.81.06-6.89.15-1.92.08-4.01-1.02-3.45,2-.67,0-1.33-.01-2,0,.56-3.03-1.53-1.92-3.45-2-2.33-.09-4.76-.08-7.09,0-1.92.07-4.01-1.02-3.45,2-4.6,0-9.47.46-13.98-.52-.93-.42-14.09-13.55-14.5-14.5-1.77-4.16.35-7.78.47-11.49.09-2.9-.75-13.86.94-15.05l82.06-.44Z"/>
    <path class="cls-24" d="M507.32,579.87l-2.13,19.36-4.87,3.63c-.66-.06-1.34.03-2,0-.41-1.56-3.68-1.49-4,0-24.3-.5-48.69.37-73,0l1-23c28.28.68,56.73-.89,84.99,0Z"/>
    <path class="cls-21" d="M448.33,648.86c-.56-3.02,1.53-1.93,3.45-2,2.33-.08,4.76-.09,7.09,0,1.92.08,4.01-1.03,3.45,2-4.56.08-9.34,0-14,0Z"/>
    <path class="cls-21" d="M498.32,602.87c-1.33-.06-2.67.03-4,0,.32-1.49,3.59-1.56,4,0Z"/>
    <path class="cls-24" d="M504.32,604.87v-1l.98.5c-.04.28-.91.3-.98.5Z"/>
    <path class="cls-24" d="M519.03,522.02c7.97-2.23,11.55,10.9,1.7,11.86-7.61.74-6.24-10.58-1.7-11.86Z"/>
    <path class="cls-24" d="M395.49,608.71c-2.99-4.75,4.07-10.99,7.4-4.85,2.22,4.1-5.52,7.83-7.4,4.85Z"/>
    <path class="cls-24" d="M618.98,603.03c9.08-3.13,10.7,11.45.89,9.84-5.17-.85-4.17-8.71-.89-9.84Z"/>
    <path class="cls-27" d="M599.31,368.92c-.18.15.53,2.77-2,2l-.54-1.04c.76-.75,2.22-.69,2.54-.96.2-.17,2.89-2.5,3.04-2.67,5.16-5.95,4.85-20.59.96-27.32,8.21,7.15,5.39,21.01-.99,28.55-1.09,1.28-2.64,1.14-3.01,1.45Z"/>
    <path class="cls-27" d="M602.31,337.93c-1.48-.7-3.38-1.42-5-1,1.16-2,4.44-1.19,5,1Z"/>
    <path class="cls-22" d="M68.38,519.89c26.71-4.56,53.42-9.66,79.98-15l23,110.43c-.59,3.5-5.04,4.18-7.99,5.05-10.01,2.93-22.55,4.37-33,6.49-4.58-4.26-5.09-.1-5.66.03-2.04.46-4.13-.96-5.84-.82-4.93.38-16.03,4.45-17.99.77h-2.02c-3.01,5.83-5.3-.86-6.81-2.64-.7-.83-2.14-1-2.77-1.79-1.07-1.31-.16-2.73-.57-3.55-1.67-3.38-4.34-3.68-2.26-8.23.37-.82,1.92-.82,1.87-1.22-.47-4.47-2.59-3.45-2.06-11.11.03-.36-4.14-1.38-.98-6.01l-1.96-.93,2.04-5.49-1.76.72c-3.34-3.33-2.62-8.43-4.3-12.95-.23-.61-1.41-.72-1.6-1.09-.82-1.61.62-4.2-2.31-3.7l2.04-1.54c.05-2.6-4.63-9.18.95-9.44.27.09.65-.06,1,0,1.54,2.53,3.76.39,5,0,10.79-3.39,18.33-6.52,11.2-19.7-3.32-6.15-16.02-5.4-21.2-2.29-1.84.44-2.63,1.67-3.82-.66-1.68-3.3-3.37-11.7-2.18-15.34ZM127.68,527.2c-4.3,3.87-2.79,16.85,2.71,19.15,3.86,1.61,17.72-.58,19.45-4.49,2.88-6.48-1.15-18.86-9.81-18.66-2.1.05-10.8,2.61-12.35,4ZM97.72,608.53c13.57,15.57,40.17,13.49,50.28-4.53,18.77-33.45-29.08-63.39-52.04-31.04-6.93,9.77-6.16,26.47,1.76,35.56ZM103.87,625.86v1c.65-.33.65-.67,0-1Z"/>
    <path class="cls-22" d="M122.37,443.9c1.77-.04,4.04.39,6,0-1.47,2.55.83,3.85,1.01,5.59.15,1.48-1.03,2.27-1.01,2.4-9.85,2.57-20,4.11-30,6-.97-1.74-3.66-1.03-5.24-.76-13.94,2.43-27.67,6.16-41.76,7.76-.68,1.77.73,2.36,1,3,5.3,12.13,7.21,27.99,10,41l76-13.01c-.11-.96.15-2.09,0-3l1.14-.65.87,6.65c-4.93-.45-9.53,1.83-14.01,3-17.19,4.49-44.08,10.42-61.62,11.86-2.09.17-5.64.69-7.39-.35-3.2-1.9-10.44-46.64-12.78-53.24.08-2.89,4.69-3.2,6.78-3.78,16.04-4.43,55-12.12,71-12.48Z"/>
    <path class="cls-20" d="M68.38,519.89c-1.19,3.63.5,12.03,2.18,15.34,1.19,2.33,1.98,1.1,3.82.66-6.03,3.62-2.49,19.87,4,22-5.58.27-.9,6.84-.95,9.44l-2.04,1.54c2.93-.5,1.49,2.09,2.31,3.7.19.38,1.38.48,1.6,1.09,1.68,4.52.96,9.61,4.3,12.95l1.76-.72-2.04,5.49,1.96.93c-3.16,4.63,1,5.65.98,6.01-.54,7.66,1.58,6.65,2.06,11.11.04.4-1.5.4-1.87,1.22-2.08,4.55.59,4.85,2.26,8.23.41.82-.5,2.24.57,3.55.64.78,2.07.96,2.77,1.79,1.51,1.78,3.8,8.47,6.81,2.64h2.02c1.96,3.67,13.07-.4,17.99-.77,1.72-.13,3.8,1.29,5.84.82.57-.13,1.08-4.29,5.66-.03-12.87,2.61-25.8,5.05-38.61,7.94l-5.83-2.99-26.55-110.92c3.07.27,6.03-.5,9-1ZM85.38,609.88h-2.99s0,1.98,0,1.98h1.48s1.51-1.98,1.51-1.98ZM90.88,626.86v1c.65-.33.65-.67,0-1Z"/>
    <path class="cls-13" d="M126.37,501.89c4.48-1.17,9.07-3.45,14.01-3l-.87-6.65-1.14.65c-2.29-13.05-8.14-27.66-10-40.99-.02-.13,1.17-.92,1.01-2.4-.18-1.74-2.48-3.04-1.01-5.59-1.97.38-4.24-.05-6,0,16.17-7.99,13.82,8.68,16.29,19.2,1.35,5.74,8.92,31.41,7.23,34.79-1.37,2.74-15.78,3.69-19.52,4Z"/>
    <path class="cls-15" d="M348.34,122.97c.33,0,.67,0,1,0l-.5.98-.5-.98Z"/>
    <path class="cls-15" d="M351.34,122.97c.33,0,.67,0,1,0l-.5.98-.5-.98Z"/>
    <path class="cls-15" d="M434.03,275.13c11.77-3.61,10.71,19.64-1.04,15.64-4-1.36-3.87-14.13,1.04-15.64Z"/>
    <path class="cls-30" d="M97.72,608.53c-7.92-9.09-8.69-25.8-1.76-35.56,22.96-32.35,70.81-2.41,52.04,31.04-10.11,18.01-36.71,20.1-50.28,4.53ZM130.24,566.01l-9.97-1.56-7.73,45.14c-.13,2.94,9.88,4.21,10.95,2.69l6.75-46.28ZM114.37,566.88c-19.67,3.83-23.94,29.08-8.48,40.98l2.27-1.71,6.21-39.27ZM130.38,610.86c18.41-6.14,23.65-29.8,6.48-40.98l-6.48,40.98Z"/>
    <path class="cls-30" d="M127.68,527.2c1.55-1.4,10.25-3.96,12.35-4,8.65-.19,12.69,12.18,9.81,18.66-1.74,3.91-15.6,6.11-19.45,4.49-5.5-2.3-7.01-15.28-2.71-19.15ZM143.27,539.79c.44-2.91.25-6.22-1.89-8.45l-9.87,1.67c-1.04,10.81,3.7,9.39,11.77,6.78Z"/>
    <path class="cls-30" d="M84.38,557.88c-1.59-.17-3.49.24-5,0-.35-.06-.73.09-1,0-6.49-2.12-10.03-18.38-4-22,5.18-3.11,17.88-3.85,21.2,2.29,7.13,13.18-.42,16.31-11.2,19.7ZM80.88,539.37c-5.67,1.53-4.6,13.6,3.91,12.48,9.57-1.27,7.51-11.83,1.88-12.76-.31-.05-5.51.2-5.79.28Z"/>
    <path class="cls-20" d="M84.38,557.88c-1.24.39-3.46,2.53-5,0,1.51.24,3.41-.17,5,0Z"/>
    <path class="cls-20" d="M103.87,625.86c.65.33.65.67,0,1v-1Z"/>
    <path class="cls-8" d="M138.37,492.89c.16.91-.1,2.03,0,3l-76,13.01c-2.78-13-4.7-28.87-10-41-.57-3.15,1.55-1.7,3.43-2.02,14.23-2.47,28.39-5.29,42.57-7.97,10-1.89,20.14-3.43,30-6,1.86,13.33,7.71,27.94,10,40.99Z"/>
    <path class="cls-29" d="M98.37,457.9c-14.18,2.68-28.34,5.51-42.57,7.97-1.87.32-4-1.13-3.43,2.02-.28-.63-1.68-1.22-1-3,14.09-1.6,27.82-5.33,41.76-7.76,1.57-.28,4.27-.98,5.24.76Z"/>
    <polygon class="cls-22" points="85.38 609.88 83.86 611.86 82.38 611.86 82.38 609.87 85.38 609.88"/>
    <path class="cls-22" d="M90.88,626.86c.65.33.65.67,0,1v-1Z"/>
    <path class="cls-22" d="M130.24,566.01l-6.75,46.28c-1.07,1.52-11.08.25-10.95-2.69l7.73-45.14,9.97,1.56Z"/>
    <path class="cls-22" d="M114.37,566.88l-6.21,39.27-2.27,1.71c-15.46-11.9-11.19-37.15,8.48-40.98Z"/>
    <path class="cls-22" d="M130.38,610.86l6.48-40.98c17.16,11.17,11.93,34.84-6.48,40.98Z"/>
    <path class="cls-8" d="M143.27,539.79c-8.07,2.62-12.81,4.04-11.77-6.78l9.87-1.67c2.14,2.23,2.33,5.54,1.89,8.45Z"/>
    <path class="cls-8" d="M80.88,539.37c.28-.08,5.47-.33,5.79-.28,5.63.92,7.69,11.49-1.88,12.76-8.5,1.12-9.57-10.95-3.91-12.48Z"/>
  </g>
</svg>